<svg width="1920" height="519" viewBox="0 0 1920 519" fill="none" xmlns="http://www.w3.org/2000/svg">
<path d="M-132 32.3613C-132 32.3613 41.962 80.6704 122.647 126.616C185.913 162.642 247.888 183.499 249.971 230.323C252.885 295.842 -52.8376 299.118 15.3071 356.176C70.3494 402.263 228.859 339.498 296.789 381.563C347.19 412.773 278.578 448.765 325.337 481.219C418.338 545.765 641.663 517.573 744.991 456.642C867.079 384.649 643.808 336.458 601.11 230.323C490.964 -43.4694 1003.83 -61.5944 1009.92 120.134C1013.87 238.072 1111.51 97.6028 1121.82 137.689C1160.73 288.895 1113.94 382.655 1245.72 317.286C1382.64 249.366 1474.86 203.004 1553.47 277.045C1729.63 442.976 1374.57 -97.519 1739.6 159.835C1947.59 306.475 2121 381.563 2121 381.563" stroke="#0D378D" stroke-opacity="0.24"/>
</svg>
