<svg width="1920" height="519" viewBox="0 0 1920 519" fill="none" xmlns="http://www.w3.org/2000/svg">
<path d="M2056 486.639C2056 486.639 1882.04 438.33 1801.35 392.384C1738.09 356.358 1676.11 335.501 1674.03 288.677C1671.12 223.158 1976.84 219.882 1908.69 162.824C1853.65 116.737 1695.14 179.502 1627.21 137.437C1576.81 106.227 1645.42 70.2348 1598.66 37.7814C1505.66 -26.7653 1282.34 1.42667 1179.01 62.3578C1056.92 134.351 1280.19 182.542 1322.89 288.677C1433.04 562.469 920.172 580.594 914.084 398.866C910.133 280.928 812.491 421.397 802.176 381.311C763.269 230.105 810.056 136.345 678.279 201.714C541.358 269.634 449.139 315.996 370.532 241.955C194.37 76.0238 549.427 616.519 184.4 359.165C-23.5935 212.524 -197 137.437 -197 137.437" stroke="#0D378D" stroke-opacity="0.24"/>
</svg>
