<svg width="66" height="66" viewBox="0 0 66 66" fill="none" xmlns="http://www.w3.org/2000/svg">
<path d="M53.4469 24.2414L30.1973 19.708L11.8048 23.5614V24.9052L13.6505 46.9729C14.1362 51.4901 17.8277 55.6673 21.681 55.6673H31.1849C33.5325 58.1768 39.0373 62.8559 46.2421 64.0216C46.7278 64.0216 47.2298 64.0216 46.2421 63.3578C44.9927 62.5042 43.9728 61.3561 43.2725 60.0148C42.5722 58.6735 42.2131 57.1803 42.2269 55.6673H51.4231C55.2603 55.6673 58.7736 51.992 59.2755 47.4748L59.9393 33.0976C60.1012 28.7423 57.2679 24.7433 53.4307 24.2414H53.4469Z" fill="#3398C1"/>
<path d="M40.5748 21.7314C40.4129 22.5571 39.5548 23.2371 36.0415 24.2409C33.37 25.0667 30.0348 25.7467 26.1814 26.4105C22.5061 27.0743 18.8309 27.4143 16.1432 27.5762H14.6699C13.3747 27.5762 12.7594 27.6733 12.0956 27.5114L11.6585 25.2448C11.9823 25.2448 12.3223 25.4067 12.5004 25.5686C13.5042 25.8924 18.5071 25.7305 25.8738 24.5647C32.8843 23.399 37.7415 21.8933 38.7453 21.2295L40.5748 21.7152V21.7314Z" fill="#00658E"/>
<path d="M41.06 4.68268C41.06 3.67886 40.5742 2.51314 39.5542 2.35124H39.3923C38.8222 2.3048 38.2484 2.37156 37.7042 2.54769C37.1599 2.72381 36.6558 3.00582 36.221 3.37749C35.7861 3.74916 35.429 4.20315 35.1703 4.71335C34.9115 5.22354 34.7562 5.77986 34.7133 6.35031C34.5514 7.85603 35.2152 9.19984 36.219 10.0418C36.5428 10.5275 36.5428 11.0456 36.3809 11.3694L33.0456 16.7123C32.3656 17.8942 30.8761 17.8942 30.0342 16.8742L26.0189 11.6932C25.6951 11.3694 25.857 10.7056 26.1808 10.3656C26.6253 9.87503 26.9479 9.28658 27.1223 8.648C27.2967 8.00941 27.3181 7.33869 27.1847 6.69031C26.8608 4.34267 24.5132 2.67505 22.0037 3.01505C20.8642 3.26128 19.8635 3.93697 19.2092 4.90178C18.5549 5.8666 18.2975 7.04636 18.4903 8.19603C18.6522 9.70175 19.6722 10.8675 20.8379 11.3694C21.3237 11.5313 21.5018 12.0332 21.3237 12.5351L19.4941 18.7361C19.4051 19.0134 19.2493 19.2647 19.0406 19.4679C18.8318 19.671 18.5764 19.8199 18.2967 19.9014C18.0171 19.9829 17.7217 19.9946 17.4365 19.9354C17.1512 19.8762 16.8849 19.7479 16.6608 19.5618L11.6417 15.5465C11.3179 15.3846 11.3179 14.8827 11.4798 14.3808C12.1436 13.2151 12.3055 11.7094 11.6417 10.3656C10.6379 8.19603 8.12835 7.19221 5.79691 8.19603H5.63501C4.7931 8.69794 4.615 9.86366 4.955 10.8675L11.8036 26.4104C11.9655 27.4304 18.3284 27.0904 26.0189 25.7628C33.7094 24.419 39.7323 22.5732 39.5704 21.5694L41.06 4.68268Z" fill="#F59E0B"/>
</svg>
