<svg width="66" height="66" viewBox="0 0 66 66" fill="none" xmlns="http://www.w3.org/2000/svg">
<path d="M58.4187 7.67808H49.9187V4.84473H15.9185V7.67808H7.41843C5.71842 7.67808 4.58508 8.81142 4.58508 10.5114V17.3115C4.58673 20.4562 5.74102 23.4912 7.82952 25.8423C9.91803 28.1934 12.7959 29.6973 15.9185 30.0696V30.3449C15.9185 38.5535 21.5852 45.3535 29.2433 47.0535L27.2519 53.0117H20.7271C19.5937 53.0117 18.4604 53.8536 18.1852 55.0031L15.9185 61.5117H49.9187L47.652 55.0031C47.4958 54.4406 47.1627 53.9433 46.702 53.5846C46.2414 53.226 45.6775 53.0251 45.0939 53.0117H38.5853L36.5938 47.0535C40.3868 46.2046 43.7759 44.0851 46.1993 41.0462C48.6227 38.0074 49.935 34.2317 49.9187 30.3449V30.0534C56.4273 29.2115 61.2521 23.8201 61.2521 17.3115V10.5114C61.2521 8.81142 60.1187 7.67808 58.4187 7.67808ZM15.2709 24.4515C13.7397 23.9951 12.3949 23.0604 11.4334 21.7843C10.472 20.5081 9.94439 18.9577 9.92797 17.36V13.3933H15.2709V24.4515ZM55.1968 17.36C55.1968 20.7601 52.7844 23.8848 49.8539 24.4515V13.3933H55.1968V17.36Z" fill="#3398C1"/>
<path d="M28.3033 35.0403C28.1601 35.117 27.998 35.1514 27.8359 35.1395C27.6739 35.1277 27.5185 35.0701 27.388 34.9734C27.2574 34.8767 27.1569 34.745 27.0983 34.5934C27.0396 34.4419 27.0252 34.2768 27.0567 34.1174L27.3805 32.9031L42.5025 21.5859H44.1215C44.8177 21.6993 45.093 22.5574 44.6072 23.0755L40.2682 27.3336C40.1702 27.432 40.097 27.5524 40.0548 27.6847C40.0125 27.817 40.0024 27.9575 40.0253 28.0945L41.0453 34.1174C41.0768 34.2768 41.0624 34.4419 41.0037 34.5934C40.9451 34.745 40.8446 34.8767 40.714 34.9734C40.5834 35.0701 40.4281 35.1277 40.266 35.1395C40.104 35.1514 39.9419 35.117 39.7986 35.0403L34.4558 32.1908C34.3312 32.1241 34.1922 32.0893 34.051 32.0893C33.9098 32.0893 33.7707 32.1241 33.6462 32.1908L28.3033 35.0403Z" fill="#00658E"/>
<path d="M27.0571 33.6153C26.9156 33.686 26.7574 33.7163 26.5999 33.7028C26.4423 33.6892 26.2916 33.6324 26.1643 33.5386C26.037 33.4448 25.9381 33.3177 25.8785 33.1712C25.8189 33.0248 25.8009 32.8647 25.8266 32.7086L26.8304 26.7505C26.8533 26.6135 26.8432 26.473 26.801 26.3407C26.7587 26.2084 26.6856 26.088 26.5875 25.9896L22.3132 21.7638C22.2006 21.6522 22.121 21.5116 22.0835 21.3575C22.0459 21.2034 22.0517 21.042 22.1004 20.891C22.149 20.7401 22.2385 20.6056 22.359 20.5024C22.4794 20.3993 22.6261 20.3315 22.7828 20.3067L28.6923 19.4324C28.8319 19.411 28.964 19.3554 29.077 19.2707C29.19 19.186 29.2803 19.0747 29.3399 18.9467L31.979 13.5228C32.3028 12.8752 33.1933 12.8752 33.5009 13.5228L36.1562 18.9467C36.2695 19.2057 36.5124 19.3838 36.8038 19.4324L42.6972 20.2905C43.3934 20.4038 43.6686 21.2619 43.1829 21.7476L38.8924 25.9896C38.7944 26.088 38.7212 26.2084 38.679 26.3407C38.6367 26.473 38.6266 26.6135 38.6495 26.7505L39.6533 32.7086C39.679 32.8647 39.661 33.0248 39.6014 33.1712C39.5418 33.3177 39.4429 33.4448 39.3156 33.5386C39.1883 33.6324 39.0376 33.6892 38.88 33.7028C38.7225 33.7163 38.5643 33.686 38.4228 33.6153L33.1285 30.7982C33.0085 30.7357 32.8752 30.7031 32.74 30.7031C32.6047 30.7031 32.4714 30.7357 32.3514 30.7982L27.0571 33.6153Z" fill="#F59E0B"/>
</svg>
