<svg width="21" height="18" viewBox="0 0 21 18" fill="none" xmlns="http://www.w3.org/2000/svg">
<path d="M5.51797 0.75H15.2679C16.0807 0.749993 16.7364 0.749987 17.2673 0.793364C17.8139 0.838026 18.294 0.932385 18.7383 1.15873C19.4439 1.51825 20.0175 2.09193 20.3771 2.79754C20.6034 3.24175 20.6978 3.7219 20.7424 4.26853C20.7489 4.34797 20.7544 4.4302 20.7591 4.51533C20.7896 4.62592 20.7937 4.74077 20.7732 4.85102C20.7858 5.26071 20.7858 5.72985 20.7858 6.26788V11.7321C20.7858 12.545 20.7858 13.2006 20.7424 13.7315C20.6978 14.2781 20.6034 14.7582 20.3771 15.2025C20.0175 15.9081 19.4439 16.4817 18.7383 16.8413C18.294 17.0676 17.8139 17.162 17.2673 17.2066C16.7364 17.25 16.0807 17.25 15.2679 17.25H5.51796C4.70513 17.25 4.04952 17.25 3.51861 17.2066C2.97197 17.162 2.49183 17.0676 2.04762 16.8413C1.34201 16.4817 0.768331 15.9081 0.408805 15.2025C0.182465 14.7582 0.0881051 14.2781 0.0434431 13.7315C6.60382e-05 13.2006 7.20569e-05 12.5449 7.94479e-05 11.7321V6.2679C7.45603e-05 5.72986 7.02692e-05 5.26071 0.0126479 4.85102C-0.00780207 4.74078 -0.00369722 4.62591 0.0267409 4.51532C0.031434 4.4302 0.0369529 4.34797 0.0434431 4.26853C0.0881051 3.7219 0.182465 3.24175 0.408805 2.79754C0.76833 2.09193 1.34201 1.51825 2.04762 1.15873C2.49183 0.932385 2.97197 0.838026 3.51861 0.793364C4.04952 0.749987 4.70514 0.749993 5.51797 0.75ZM19.2432 4.3413C19.2052 3.91768 19.1375 3.66876 19.0406 3.47852C18.8248 3.05516 18.4806 2.71095 18.0573 2.49524C17.8598 2.3946 17.599 2.32547 17.1451 2.28838C16.6825 2.25058 16.0882 2.25 15.2358 2.25H5.55008C4.69763 2.25 4.10339 2.25058 3.64076 2.28838C3.18688 2.32547 2.92612 2.3946 2.7286 2.49524C2.30524 2.71095 1.96103 3.05516 1.74531 3.47852C1.64838 3.66876 1.58068 3.91768 1.54269 4.34131L8.1464 8.74378C9.15769 9.41797 9.50982 9.63938 9.8686 9.72536C10.2133 9.80795 10.5726 9.80795 10.9173 9.72536C11.2761 9.63938 11.6282 9.41797 12.6395 8.74378L19.2432 4.3413Z" fill="#0D378D"/>
</svg>
