<svg width="119" height="55" viewBox="0 0 119 55" fill="none" xmlns="http://www.w3.org/2000/svg">
<path d="M13.8306 35.0825H109.623V15.5898H13.8306V35.0825Z" fill="white"/>
<path d="M84.9329 27.4097C84.7472 27.4716 84.6234 27.6573 84.4997 27.781C84.4378 27.9048 84.3759 28.0904 84.3759 28.2761C84.3759 28.5236 84.4378 28.7092 84.6234 28.8949C84.8091 29.0805 85.0566 29.1424 85.3041 29.1424C85.5517 29.1424 85.7992 29.0805 85.9848 29.0187C86.1705 28.8949 86.3561 28.7711 86.4799 28.5855C86.6037 28.3998 86.7274 28.2142 86.7893 27.9667C86.8512 27.7191 86.9131 27.5335 86.9131 27.286V26.9766C86.4799 26.9766 86.0467 26.9766 85.6135 27.1003C85.4898 27.1003 85.2423 27.2241 84.9329 27.4097Z" fill="#27A9E1"/>
<path d="M33.9419 23.944C33.6944 23.944 33.5087 24.0059 33.2612 24.0677C33.0137 24.1915 32.828 24.3153 32.6424 24.5009C32.4567 24.6866 32.333 24.996 32.2092 25.2435C32.0854 25.6148 32.0236 25.9861 32.0854 26.3574C32.0236 27.0381 32.2092 27.7187 32.5186 28.2757C32.828 28.7088 33.3231 28.9564 33.88 28.8945C34.375 28.8945 34.8701 28.7088 35.1795 28.2757C35.5508 27.7187 35.7364 27.0999 35.6746 26.4192C35.7364 25.8004 35.5508 25.1197 35.2414 24.5628C34.9939 24.1296 34.4988 23.8821 33.9419 23.944Z" fill="#27A9E1"/>
<path d="M60.3042 23.5107C59.8711 23.5107 59.4998 23.6964 59.2523 23.9439C58.9428 24.3152 58.7572 24.7484 58.7572 25.1815H61.6656C61.7275 24.7484 61.6037 24.3152 61.2943 23.9439C61.0468 23.6964 60.6755 23.5726 60.3042 23.5107Z" fill="#27A9E1"/>
<path d="M104.487 29.4518C104.302 29.885 103.992 30.1944 103.621 30.5038C103.188 30.8132 102.755 30.9989 102.26 31.1226C101.703 31.3083 101.084 31.3701 100.465 31.3701C99.7226 31.3701 99.0419 31.3083 98.3612 31.1226L98.4849 28.7092C99.1038 28.9568 99.7845 29.0805 100.465 29.0805C100.775 29.0805 101.084 29.0186 101.331 28.8949C101.517 28.7711 101.641 28.5855 101.641 28.338C101.641 28.1523 101.579 27.9048 101.393 27.781C101.208 27.6573 100.96 27.5335 100.713 27.4097L99.8463 27.1003C99.5369 26.9766 99.2894 26.7909 98.98 26.6053C98.7325 26.4196 98.4849 26.1102 98.2993 25.8008C98.1137 25.4295 98.0518 24.9345 98.0518 24.5013C98.0518 24.0681 98.1137 23.635 98.2993 23.2637C98.4849 22.8924 98.7325 22.5211 99.0419 22.2117C99.4132 21.9023 99.9082 21.6548 100.341 21.531C100.96 21.3454 101.579 21.2835 102.26 21.2835C102.507 21.2835 102.817 21.2835 103.064 21.3454C103.374 21.4072 103.621 21.4072 103.931 21.4691L103.807 23.7587C103.559 23.6968 103.25 23.635 103.002 23.5731C102.693 23.5112 102.445 23.5112 102.136 23.5112C101.827 23.5112 101.579 23.5731 101.331 23.6968C101.146 23.8206 101.084 24.0063 101.084 24.1919C101.084 24.3775 101.208 24.5632 101.331 24.687C101.517 24.8107 101.765 24.9345 102.012 25.0582L102.879 25.4295C103.188 25.5533 103.497 25.7389 103.745 25.9246C103.992 26.1102 104.24 26.4196 104.426 26.729C104.611 27.1003 104.735 27.5335 104.673 27.9667C104.735 28.5236 104.673 29.0186 104.487 29.4518ZM97.2473 24.3157C96.6285 24.0681 95.8859 24.2538 95.4528 24.7488C95.0196 25.2439 94.8339 26.0483 94.8339 27.2241V31.1845H91.9255V21.6548H94.6483C94.6483 21.8404 94.6483 22.1498 94.6483 22.4592C94.6483 22.7686 94.5864 23.078 94.5245 23.3874H94.5864C94.8339 22.8305 95.2052 22.3355 95.6384 21.9642C96.1334 21.5929 96.8141 21.4072 97.433 21.4691L97.2473 24.3157ZM87.3463 31.1845C87.3463 30.937 87.3463 30.6894 87.3463 30.4419C87.3463 30.1944 87.3463 29.9469 87.4082 29.6993C87.1606 30.1944 86.7894 30.6276 86.2943 30.8751C85.7374 31.1845 85.1186 31.3083 84.4997 31.3083C84.0666 31.3083 83.6334 31.2464 83.2621 31.0607C82.9527 30.937 82.6433 30.6894 82.3958 30.4419C82.1482 30.1944 81.9626 29.885 81.8388 29.5756C81.7151 29.2043 81.6532 28.833 81.6532 28.4617C81.6532 27.9048 81.777 27.4097 82.0864 26.9147C82.3339 26.4815 82.7671 26.1102 83.2002 25.8627C83.7572 25.5533 84.3141 25.3676 84.9329 25.2439C85.6755 25.1201 86.3562 25.0582 87.0988 25.0582V24.687C87.0988 24.3775 86.975 24.0063 86.7275 23.8206C86.2943 23.5731 85.8611 23.5112 85.3661 23.5112C84.9329 23.5112 84.4379 23.5731 84.0047 23.6968C83.5715 23.8206 83.1384 23.9444 82.7052 24.13L82.2101 21.8404C82.7671 21.6548 83.324 21.531 83.9428 21.4072C84.5616 21.2835 85.2423 21.2216 85.8611 21.2216C86.5418 21.2216 87.2225 21.2835 87.8413 21.4072C88.3364 21.531 88.7696 21.7785 89.1408 22.0879C89.4502 22.3973 89.6978 22.7686 89.8215 23.2018C89.9453 23.635 90.0072 24.13 90.0072 24.6251V28.833C90.0072 29.2043 90.0072 29.5756 90.0072 29.9469C90.0072 30.3182 90.0691 30.7513 90.0691 31.1226H87.3463V31.1845ZM79.7968 31.3083C79.4255 31.3701 79.0542 31.3701 78.6829 31.3701C78.1878 31.3701 77.7547 31.3083 77.3215 31.2464C76.6408 31.0607 76.0839 30.5038 75.9601 29.8231C75.8363 29.3281 75.7745 28.833 75.8363 28.338V23.8825H74.4131V21.6548H75.8363V18.8082L78.7448 18.0038V21.5929H80.7868V23.8206H78.6829V27.5954C78.621 27.9667 78.7448 28.2761 78.9304 28.6474C79.1161 28.833 79.4255 28.9568 79.673 28.9568C79.8586 28.9568 79.9824 28.9568 80.168 28.8949L80.6631 28.7711L80.8487 31.0607C80.4774 31.1845 80.1062 31.2464 79.7968 31.3083ZM73.6705 28.7711C73.423 29.3281 73.0517 29.7612 72.6185 30.1325C72.1235 30.5657 71.5665 30.8751 71.0096 31.0607C70.3289 31.3083 69.6482 31.3701 68.9056 31.3701C68.3487 31.3701 67.7918 31.3701 67.2348 31.3083C66.7398 31.2464 66.3066 31.1845 65.8116 31.0607L66.121 28.2142C66.5541 28.3998 66.9873 28.5236 67.4823 28.6474C67.9774 28.7711 68.4725 28.833 69.0294 28.7711C69.4626 28.7711 69.8957 28.6474 70.267 28.4617C70.6383 28.2142 70.8239 27.8429 70.7621 27.4097C70.7621 27.1003 70.6383 26.729 70.3908 26.5434C70.0814 26.2959 69.772 26.1102 69.4007 25.9865C69.0294 25.8008 68.5962 25.6771 68.163 25.4914C67.7299 25.3058 67.2967 25.1201 66.9254 24.8107C66.5541 24.5013 66.1828 24.13 65.9972 23.6968C65.7497 23.1399 65.564 22.5211 65.6259 21.9642C65.6259 21.4072 65.7497 20.8503 65.9972 20.2934C66.2447 19.7983 66.5541 19.3651 66.9873 18.9939C67.4824 18.6226 68.0393 18.3132 68.5962 18.1894C69.2769 18.0038 70.0195 17.88 70.7621 17.88C71.0715 17.88 71.5046 17.88 71.9378 17.9419C72.371 18.0038 72.7423 18.0656 73.1754 18.1275L72.9279 20.7265C72.1853 20.479 71.4428 20.3553 70.7002 20.3553C70.2051 20.2934 69.772 20.4171 69.3388 20.7265C69.0294 20.9741 68.8437 21.4072 68.9056 21.7785C68.9056 22.026 69.0294 22.2736 69.2769 22.3973C69.5863 22.6449 69.9576 22.8305 70.267 23.0161C70.6383 23.2018 71.0715 23.3874 71.5046 23.5731C71.9378 23.7587 72.371 24.0063 72.7423 24.2538C73.1136 24.5632 73.4848 24.9345 73.7324 25.3676C74.0418 25.8627 74.1656 26.4815 74.1037 27.0384C74.1037 27.6573 73.9799 28.2142 73.7324 28.7711H73.6705ZM64.5739 26.4815C64.5739 26.6672 64.512 26.9147 64.512 27.1622H58.7571C58.7571 27.7191 58.9427 28.2761 59.3759 28.6474C59.8709 29.0187 60.4897 29.2043 61.1704 29.1424C61.6655 29.1424 62.0987 29.0805 62.5937 29.0187C63.0888 28.8949 63.5219 28.7711 64.017 28.5855L64.3264 30.8132C63.7695 31.0607 63.1507 31.1845 62.5937 31.3083C61.9749 31.432 61.3561 31.4939 60.7373 31.4939C59.4378 31.5558 58.1383 31.1845 57.1482 30.3182C56.3437 29.5137 55.9105 28.2761 55.9105 26.6053C55.9105 25.9246 56.0343 25.2439 56.2199 24.5632C56.4056 23.9444 56.715 23.3874 57.0863 22.9543C57.4576 22.5211 57.9526 22.1498 58.5095 21.9023C59.1284 21.6548 59.8091 21.531 60.4898 21.531C61.1086 21.531 61.7893 21.6548 62.3462 21.9023C62.8412 22.0879 63.2744 22.4592 63.6457 22.8305C64.017 23.2637 64.2645 23.6968 64.3883 24.2538C64.5739 24.8107 64.6358 25.4295 64.6358 25.9865C64.5739 26.0483 64.5739 26.234 64.5739 26.4815ZM54.3635 31.1845H51.4551V25.182C51.4551 24.8726 51.3932 24.5013 51.2694 24.1919C51.1457 23.9444 50.8981 23.8206 50.5887 23.8206C50.3412 23.8206 50.1556 23.8825 49.908 24.0063C49.6605 24.13 49.4749 24.3157 49.2892 24.5632C49.1036 24.8107 48.9798 25.1201 48.856 25.4295C48.7323 25.8008 48.6704 26.1721 48.6704 26.5434V31.1226H45.762V25.1201C45.762 24.8107 45.7001 24.5013 45.5763 24.1919C45.4526 23.9444 45.1432 23.7587 44.8956 23.8206C44.6481 23.8206 44.4006 23.8825 44.2149 24.0063C43.9674 24.13 43.7818 24.3775 43.5961 24.5632C43.4105 24.8107 43.2867 25.1201 43.163 25.4295C43.0392 25.8008 42.9773 26.1102 42.9773 26.4815V31.0607H40.0689V21.6548H42.7917C42.7917 21.8404 42.7917 22.0879 42.7917 22.3355C42.7917 22.583 42.7298 22.8924 42.7298 23.1399C43.0392 22.6449 43.4724 22.2117 43.9674 21.9023C44.5243 21.5929 45.205 21.4072 45.8239 21.4691C46.4427 21.4072 47.0615 21.5929 47.5565 21.9642C47.9897 22.2736 48.2991 22.7067 48.4229 23.2018C48.6704 22.7067 49.1036 22.2736 49.5367 21.9642C50.0937 21.5929 50.7125 21.4072 51.3932 21.4691C52.1976 21.4072 52.9402 21.7166 53.4972 22.2736C54.0541 22.9543 54.3016 23.8206 54.2397 24.687L54.3635 31.1845ZM38.3362 28.338C38.0887 28.9568 37.7174 29.5137 37.2842 30.0088C36.851 30.4419 36.2941 30.8132 35.6753 31.0607C35.0565 31.3083 34.3758 31.432 33.6951 31.432C33.0763 31.432 32.4575 31.3701 31.8387 31.1845C30.7248 30.8751 29.7966 29.9469 29.4253 28.833C29.1778 28.1523 29.054 27.4097 29.1159 26.6672C29.1159 25.9246 29.2396 25.2439 29.4872 24.5632C29.7347 23.9444 30.106 23.3874 30.5391 22.8924C30.9723 22.4592 31.5292 22.0879 32.1481 21.8404C32.7669 21.5929 33.4476 21.4691 34.1901 21.4691C35.4278 21.4072 36.6654 21.8404 37.5936 22.6449C38.3981 23.4493 38.7694 24.6251 38.7694 26.234C38.7694 26.9147 38.6456 27.6573 38.3362 28.338ZM27.5688 31.1845H24.5985V25.8008H19.8337V31.1845H16.8633V18.1894H19.8337V23.2018H24.5985V18.2513H27.5688V31.1845ZM109.005 12.8676C106.282 11.8775 103.188 11.8156 100.341 11.5681C97.1236 11.3206 93.782 11.073 90.5641 10.7636C83.8809 10.2067 77.2596 9.71165 70.5764 9.15471C57.2719 8.04085 43.9674 6.80322 30.6629 5.68935C27.1975 5.37994 23.7322 5.07054 20.2668 4.82302C17.544 4.57549 12.5316 4.01855 11.7891 4.01855C7.45737 4.01855 5.29152 6.8651 4.61082 10.4542C4.3633 11.8775 4.30142 13.3008 4.48706 14.724C5.10588 19.8602 5.60093 25.0582 6.46727 30.1944C7.0242 33.9073 8.19995 37.4964 11.5415 39.6004C14.7594 41.6425 21.5045 41.2093 26.1456 41.2093H42.3585C53.3734 41.2093 64.4502 41.2093 75.5269 41.2093H81.0963C81.0963 41.2093 81.777 41.7043 82.3958 42.3232C84.0047 43.8083 85.6755 45.1697 87.5319 46.4073C90.7498 48.5113 95.4528 51.1103 99.4132 50.739C96.3191 48.5113 94.4008 45.0459 94.1532 41.2712C99.7845 41.1474 108.077 41.9519 111.604 37.682C114.822 33.7835 114.45 27.5954 114.636 22.8305C114.76 18.4988 113.336 14.4146 109.005 12.8676Z" fill="#27A9E1"/>
</svg>
