<svg width="45" height="44" viewBox="0 0 45 44" fill="none" xmlns="http://www.w3.org/2000/svg">
<rect x="22.8535" y="43.5" width="31" height="30" rx="15" transform="rotate(-135 22.8535 43.5)" fill="white"/>
<path d="M13.3076 21.226C12.917 21.6165 12.917 22.2497 13.3076 22.6402L19.6715 29.0042C20.062 29.3947 20.6952 29.3947 21.0857 29.0042C21.4763 28.6136 21.4763 27.9805 21.0857 27.59L15.4289 21.9331L21.0857 16.2763C21.4763 15.8857 21.4763 15.2526 21.0857 14.862C20.6952 14.4715 20.062 14.4715 19.6715 14.862L13.3076 21.226ZM30.9852 20.9331L14.0147 20.9331L14.0147 22.9331L30.9852 22.9331L30.9852 20.9331Z" fill="#0D378D"/>
</svg>
