<svg width="160" height="60" viewBox="0 0 160 60" fill="none" xmlns="http://www.w3.org/2000/svg">
<path fill-rule="evenodd" clip-rule="evenodd" d="M21.326 51.8561C21.0987 50.3409 20.4926 50 19.2805 49.4318C20.1896 48.9015 20.7578 48.1061 20.7578 47.0076C20.7578 44.8485 18.9775 43.9773 17.0457 43.9773H11.629V55.4924H17.0078C19.2805 55.4924 21.7048 54.4697 21.326 51.8561ZM14.0533 46.1743H16.8563C18.5987 46.1743 18.6745 48.6364 16.9699 48.6364H14.0533V46.1743ZM17.1972 53.2955H14.0533V50.6818H17.1972C19.5078 50.6818 19.3563 53.2955 17.1972 53.2955Z" fill="#055B76"/>
<path fill-rule="evenodd" clip-rule="evenodd" d="M20.6064 23.5227L23.1442 20.0378L23.826 20.5303C23.523 21.1742 23.5609 21.7424 24.1291 22.1591L28.8639 25.606C31.0609 27.1969 31.1745 29.9621 29.6972 32.0075L27.3109 35.303L26.6291 34.8106C27.0079 34.2045 26.9321 33.6363 26.1366 33.0303L21.4397 29.6591C19.7351 28.4091 19.3564 25.303 20.6064 23.5227Z" fill="#055B76"/>
<path fill-rule="evenodd" clip-rule="evenodd" d="M32.0457 51.8561C31.8184 50.3409 31.2124 50 30.0002 49.4318C30.9093 48.9015 31.4775 48.1061 31.4775 47.0076C31.4775 44.8485 29.6972 43.9773 27.7654 43.9773H22.3488V55.4924H27.7275C30.0002 55.4924 32.4245 54.4697 32.0457 51.8561ZM24.8109 46.1743H27.6139C29.3563 46.1743 29.4321 48.6364 27.7275 48.6364H24.8109V46.1743ZM27.9548 53.2955H24.8109V50.6818H27.9548C30.2275 50.6818 30.1139 53.2955 27.9548 53.2955Z" fill="#055B76"/>
<path fill-rule="evenodd" clip-rule="evenodd" d="M23.2578 10.0758L27.1972 4.62122L27.8033 5.03788C27.0078 6.17425 27.4624 7.38636 28.4472 8.06818L35.379 13.1061C38.523 15.3788 38.6366 19.5833 36.629 22.3864L32.1593 28.6742L31.5912 28.2576C32.5381 27.0076 32.3866 24.5455 31.0609 23.5606L24.5836 18.7879C22.0836 17.0076 21.4018 12.6136 23.2578 10.0758Z" fill="#055B76"/>
<path fill-rule="evenodd" clip-rule="evenodd" d="M22.0457 38.8257H16.8185L17.5003 36.5151H37.0078L37.6896 38.8257H32.4624L31.5154 42.0076H22.9927L22.0457 38.8257Z" fill="#055B76"/>
<path fill-rule="evenodd" clip-rule="evenodd" d="M42.7654 51.856C42.5381 50.3409 41.9321 50 40.7199 49.4697C41.629 48.9394 42.1972 48.1439 42.1972 47.0454C42.1972 44.8863 40.4169 44.0151 38.4851 44.0151H33.1063V55.5303H38.4851C40.7578 55.4924 43.1821 54.4697 42.7654 51.856ZM35.5684 46.1742H38.3715C40.1139 46.1742 40.1896 48.6363 38.4851 48.6363H35.5684V46.1742ZM38.6745 53.2954H35.5306V50.6818H38.6745C40.9851 50.6818 40.8336 53.2954 38.6745 53.2954Z" fill="#055B76"/>
<path fill-rule="evenodd" clip-rule="evenodd" d="M47.4244 52.9166C47.841 52.803 48.1441 52.5757 48.1441 52.1212C48.1441 51.9318 48.0683 51.7424 47.9168 51.5909C47.6895 51.4015 47.4244 51.2878 47.1213 51.2878H45.8713V54.0151H46.288V52.9924H46.9698L47.7653 54.0151H48.2577L47.4244 52.9166ZM46.288 52.6136V51.6666H47.0835C47.4622 51.6666 47.6895 51.856 47.6895 52.1212C47.6895 52.4242 47.4244 52.6136 47.0456 52.6136H46.288Z" fill="#055B76"/>
<path fill-rule="evenodd" clip-rule="evenodd" d="M46.932 50.0757C45.4926 50.0757 44.2805 51.2878 44.2805 52.7272V52.7651C44.2805 54.2045 45.4926 55.4166 46.932 55.4166C48.3714 55.4166 49.5835 54.2045 49.5835 52.7651V52.7272C49.5835 51.2499 48.3714 50.0757 46.932 50.0757ZM49.3184 52.7272C49.3184 54.053 48.2199 55.1514 46.8941 55.1514C45.5684 55.1514 44.5078 54.053 44.4699 52.7651V52.7272C44.4699 51.4014 45.5684 50.303 46.8941 50.303C48.2578 50.303 49.3184 51.3636 49.3184 52.7272Z" fill="#055B76"/>
<path fill-rule="evenodd" clip-rule="evenodd" d="M66.8183 21.0606L65.4925 24.7348H68.144L66.8183 21.0606ZM66.8183 21.0606L65.4925 24.7348H68.144L66.8183 21.0606ZM66.8183 21.0606L65.4925 24.7348H68.144L66.8183 21.0606ZM66.8183 21.0606L65.4925 24.7348H68.144L66.8183 21.0606ZM66.8183 21.0606L65.4925 24.7348H68.144L66.8183 21.0606ZM93.6743 20.8712H91.7803V23.1818H93.6743C94.4318 23.1818 94.9621 22.7652 94.9621 22.0455C94.9621 21.2879 94.394 20.8712 93.6743 20.8712ZM93.6743 20.8712H91.7803V23.1818H93.6743C94.4318 23.1818 94.9621 22.7652 94.9621 22.0455C94.9621 21.2879 94.394 20.8712 93.6743 20.8712ZM66.8183 21.0606L65.4925 24.7348H68.144L66.8183 21.0606ZM66.8183 21.0606L65.4925 24.7348H68.144L66.8183 21.0606ZM93.6743 20.8712H91.7803V23.1818H93.6743C94.4318 23.1818 94.9621 22.7652 94.9621 22.0455C94.9621 21.2879 94.394 20.8712 93.6743 20.8712ZM109.205 20.8712H107.651V26.2121H109.205C110.871 26.2121 111.856 25 111.856 23.5606C111.894 22.0076 110.985 20.8712 109.205 20.8712ZM93.6743 20.8712H91.7803V23.1818H93.6743C94.4318 23.1818 94.9621 22.7652 94.9621 22.0455C94.9621 21.2879 94.394 20.8712 93.6743 20.8712ZM66.8183 21.0606L65.4925 24.7348H68.144L66.8183 21.0606ZM109.205 20.8712H107.651V26.2121H109.205C110.871 26.2121 111.856 25 111.856 23.5606C111.894 22.0076 110.985 20.8712 109.205 20.8712ZM66.8183 21.0606L65.4925 24.7348H68.144L66.8183 21.0606ZM93.6743 20.8712H91.7803V23.1818H93.6743C94.4318 23.1818 94.9621 22.7652 94.9621 22.0455C94.9621 21.2879 94.394 20.8712 93.6743 20.8712ZM109.205 20.8712H107.651V26.2121H109.205C110.871 26.2121 111.856 25 111.856 23.5606C111.894 22.0076 110.985 20.8712 109.205 20.8712ZM93.6743 20.8712H91.7803V23.1818H93.6743C94.4318 23.1818 94.9621 22.7652 94.9621 22.0455C94.9621 21.2879 94.394 20.8712 93.6743 20.8712ZM66.8183 21.0606L65.4925 24.7348H68.144L66.8183 21.0606ZM109.205 20.8712H107.651V26.2121H109.205C110.871 26.2121 111.856 25 111.856 23.5606C111.894 22.0076 110.985 20.8712 109.205 20.8712ZM66.8183 21.0606L65.4925 24.7348H68.144L66.8183 21.0606ZM93.6743 20.8712H91.7803V23.1818H93.6743C94.4318 23.1818 94.9621 22.7652 94.9621 22.0455C94.9621 21.2879 94.394 20.8712 93.6743 20.8712ZM109.205 20.8712H107.651V26.2121H109.205C110.871 26.2121 111.856 25 111.856 23.5606C111.894 22.0076 110.985 20.8712 109.205 20.8712ZM137.235 20.8712H135.682V26.2121H137.235C138.901 26.2121 139.924 25 139.924 23.5606C139.924 22.0076 138.977 20.8712 137.235 20.8712ZM137.235 20.8712H135.682V26.2121H137.235C138.901 26.2121 139.924 25 139.924 23.5606C139.924 22.0076 138.977 20.8712 137.235 20.8712ZM93.6743 20.8712H91.7803V23.1818H93.6743C94.4318 23.1818 94.9621 22.7652 94.9621 22.0455C94.9621 21.2879 94.394 20.8712 93.6743 20.8712ZM66.8183 21.0606L65.4925 24.7348H68.144L66.8183 21.0606ZM109.205 20.8712H107.651V26.2121H109.205C110.871 26.2121 111.856 25 111.856 23.5606C111.894 22.0076 110.985 20.8712 109.205 20.8712ZM66.8183 21.0606L65.4925 24.7348H68.144L66.8183 21.0606ZM93.6743 20.8712H91.7803V23.1818H93.6743C94.4318 23.1818 94.9621 22.7652 94.9621 22.0455C94.9621 21.2879 94.394 20.8712 93.6743 20.8712ZM109.205 20.8712H107.651V26.2121H109.205C110.871 26.2121 111.856 25 111.856 23.5606C111.894 22.0076 110.985 20.8712 109.205 20.8712ZM137.235 20.8712H135.682V26.2121H137.235C138.901 26.2121 139.924 25 139.924 23.5606C139.924 22.0076 138.977 20.8712 137.235 20.8712ZM137.235 20.8712H135.682V26.2121H137.235C138.901 26.2121 139.924 25 139.924 23.5606C139.924 22.0076 138.977 20.8712 137.235 20.8712ZM93.6743 20.8712H91.7803V23.1818H93.6743C94.4318 23.1818 94.9621 22.7652 94.9621 22.0455C94.9621 21.2879 94.394 20.8712 93.6743 20.8712ZM66.8183 21.0606L65.4925 24.7348H68.144L66.8183 21.0606ZM109.205 20.8712H107.651V26.2121H109.205C110.871 26.2121 111.856 25 111.856 23.5606C111.894 22.0076 110.985 20.8712 109.205 20.8712ZM66.8183 21.0606L65.4925 24.7348H68.144L66.8183 21.0606ZM93.6743 20.8712H91.7803V23.1818H93.6743C94.4318 23.1818 94.9621 22.7652 94.9621 22.0455C94.9621 21.2879 94.394 20.8712 93.6743 20.8712ZM109.205 20.8712H107.651V26.2121H109.205C110.871 26.2121 111.856 25 111.856 23.5606C111.894 22.0076 110.985 20.8712 109.205 20.8712ZM137.235 20.8712H135.682V26.2121H137.235C138.901 26.2121 139.924 25 139.924 23.5606C139.924 22.0076 138.977 20.8712 137.235 20.8712ZM137.235 20.8712H135.682V26.2121H137.235C138.901 26.2121 139.924 25 139.924 23.5606C139.924 22.0076 138.977 20.8712 137.235 20.8712ZM93.6743 20.8712H91.7803V23.1818H93.6743C94.4318 23.1818 94.9621 22.7652 94.9621 22.0455C94.9621 21.2879 94.394 20.8712 93.6743 20.8712ZM66.8183 21.0606L65.4925 24.7348H68.144L66.8183 21.0606ZM109.205 20.8712H107.651V26.2121H109.205C110.871 26.2121 111.856 25 111.856 23.5606C111.894 22.0076 110.985 20.8712 109.205 20.8712ZM66.8183 21.0606L65.4925 24.7348H68.144L66.8183 21.0606ZM93.6743 20.8712H91.7803V23.1818H93.6743C94.4318 23.1818 94.9621 22.7652 94.9621 22.0455C94.9621 21.2879 94.394 20.8712 93.6743 20.8712ZM109.205 20.8712H107.651V26.2121H109.205C110.871 26.2121 111.856 25 111.856 23.5606C111.894 22.0076 110.985 20.8712 109.205 20.8712ZM137.235 20.8712H135.682V26.2121H137.235C138.901 26.2121 139.924 25 139.924 23.5606C139.924 22.0076 138.977 20.8712 137.235 20.8712ZM137.235 20.8712H135.682V26.2121H137.235C138.901 26.2121 139.924 25 139.924 23.5606C139.924 22.0076 138.977 20.8712 137.235 20.8712ZM93.6743 20.8712H91.7803V23.1818H93.6743C94.4318 23.1818 94.9621 22.7652 94.9621 22.0455C94.9621 21.2879 94.394 20.8712 93.6743 20.8712ZM66.8183 21.0606L65.4925 24.7348H68.144L66.8183 21.0606ZM109.205 20.8712H107.651V26.2121H109.205C110.871 26.2121 111.856 25 111.856 23.5606C111.894 22.0076 110.985 20.8712 109.205 20.8712ZM152.007 0H7.99266C3.67449 0 0.113892 3.56061 0.113892 7.87879V52.1212C0.113892 56.4394 3.67449 60 7.99266 60H152.007C156.326 60 159.886 56.4394 159.886 52.1212V7.87879C159.886 3.56061 156.326 0 152.007 0ZM115.151 19.2424H116.97V27.803H115.151V19.2424ZM105.833 19.2424H109.205C111.894 19.2424 113.75 20.947 113.75 23.5227C113.75 26.0985 111.894 27.803 109.205 27.803H105.833V19.2424ZM98.2954 19.2424H104.356V20.8333H100.114V22.6515H104.242V24.2424H100.114V26.1742H104.356V27.7652H98.2954V19.2424ZM54.2804 58.7879H7.99266C4.3563 58.7879 1.36389 55.7955 1.32601 52.1212V7.87879C1.32601 4.24243 4.31843 1.25 7.99266 1.21212H54.2804V58.7879ZM67.9167 42.5H63.2955V33.9394H67.8031C69.4319 33.9394 70.2652 34.9621 70.2652 36.0985C70.2652 37.1591 69.5834 37.8788 68.788 38.0682C69.697 38.2197 70.4167 39.0909 70.4167 40.1515C70.4167 41.4773 69.5455 42.5 67.9167 42.5ZM69.1667 27.803L68.6364 26.3636H64.9622L64.4319 27.803H62.3486L65.644 19.2424H67.9167L71.2122 27.803H69.1667ZM79.6213 39.053C79.6213 41.1742 78.3713 42.6136 75.7576 42.6136C73.144 42.6136 71.8561 41.1364 71.8561 39.053V33.9015H73.7122V38.9773C73.7122 40.1515 74.394 40.9849 75.7198 40.9849C77.0455 40.9849 77.7273 40.1515 77.7273 38.9773V33.9015H79.5834V39.053H79.6213ZM76.2879 27.9545C73.7501 27.9545 71.7425 26.1742 71.7425 23.5227C71.7425 20.8712 73.7122 19.0909 76.2879 19.0909C77.7652 19.053 79.1667 19.8485 79.8485 21.1742L78.2955 21.9318C77.9167 21.1742 77.1213 20.6818 76.2879 20.6818C74.7349 20.6818 73.5985 21.8561 73.5985 23.4849C73.5985 25.0758 74.7349 26.2879 76.2879 26.2879C77.1213 26.2879 77.9167 25.7955 78.2955 25.0379L79.8485 25.8333C79.2425 26.9318 78.1819 27.9545 76.2879 27.9545ZM84.394 42.6515C82.7652 42.6515 81.591 42.0833 80.7955 41.2879L81.7803 39.8864C82.5 40.6439 83.4849 41.0606 84.5076 41.0227C85.4925 41.0227 85.9849 40.5682 85.9849 40.0758C85.9849 39.4318 85.1894 39.2803 84.2425 39.053C82.841 38.75 81.0606 38.3712 81.0606 36.4015C81.0606 35 82.3106 33.7879 84.3182 33.7879C85.6819 33.7879 86.8182 34.2045 87.6515 34.9621L86.6288 36.2879C85.947 35.6818 85.0758 35.3409 84.1288 35.3409C83.3334 35.3409 82.9167 35.6818 82.9167 36.2121C82.9167 36.7803 83.7122 36.9318 84.6212 37.1591C86.0228 37.5 87.8409 37.9167 87.8409 39.8485C87.8409 41.4773 86.7046 42.6515 84.394 42.6515ZM85.1894 26.3258C86.0228 26.3258 86.8182 25.8333 87.197 25.0758L88.75 25.8333C88.144 26.8939 87.0455 27.9167 85.1894 27.9167C82.6137 27.9545 80.644 26.1364 80.644 23.5227C80.644 20.9091 82.6137 19.0909 85.1894 19.0909C86.6667 19.053 88.0682 19.8485 88.75 21.1742L87.197 21.9318C86.8182 21.1742 86.0228 20.6818 85.1894 20.6818C83.6364 20.6818 82.5 21.8561 82.5 23.4849C82.5 25.1136 83.6364 26.3258 85.1894 26.3258ZM90.9849 42.5H89.1667V33.9394H90.9849V42.5ZM91.7803 27.803H89.9621V19.2424H93.9773C95.7576 19.2424 96.8561 20.4167 96.8561 22.0076C96.8561 23.5227 95.9091 24.3561 95 24.5455L96.9318 27.803H94.8485L93.1818 24.7727H91.8561V27.803H91.7803ZM100.379 42.5H98.6364L94.5455 36.9318V42.5H92.7273V33.9394H94.5833L98.5606 39.3182V33.9394H100.379V42.5ZM108.258 35.5303H104.015V37.3485H108.144V38.9394H104.015V40.8712H108.258V42.4621H102.197V33.9015H108.258V35.5303ZM112.803 42.6515C111.174 42.6515 110 42.0833 109.167 41.2879L110.151 39.8864C110.871 40.6439 111.856 41.0606 112.879 41.0227C113.864 41.0227 114.356 40.5682 114.356 40.0758C114.356 39.4318 113.561 39.2803 112.614 39.053C111.212 38.75 109.432 38.3712 109.432 36.4015C109.432 35 110.644 33.7879 112.689 33.7879C114.053 33.7879 115.189 34.2045 116.023 34.9621L115 36.2879C114.318 35.6818 113.409 35.3409 112.5 35.3409C111.705 35.3409 111.288 35.6818 111.288 36.2121C111.288 36.7803 112.083 36.9318 112.992 37.1591C114.394 37.5 116.212 37.9167 116.212 39.8485C116.212 41.4773 115.114 42.6515 112.803 42.6515ZM120.568 42.6515C118.939 42.6515 117.765 42.0833 116.97 41.2879L117.954 39.8864C118.674 40.6439 119.659 41.0606 120.682 41.0227C121.667 41.0227 122.159 40.5682 122.159 40.0758C122.159 39.4318 121.364 39.2803 120.417 39.053C119.015 38.75 117.235 38.3712 117.235 36.4015C117.235 35 118.447 33.7879 120.492 33.7879C121.856 33.7879 122.992 34.2045 123.826 34.9621L122.803 36.2879C122.121 35.6818 121.25 35.3409 120.303 35.3409C119.508 35.3409 119.091 35.6818 119.091 36.2121C119.091 36.7803 119.886 36.9318 120.795 37.1591C122.197 37.5 124.015 37.9167 124.015 39.8485C123.977 41.4773 122.879 42.6515 120.568 42.6515ZM125.038 20.8712H122.538V27.803H120.72V20.8712H118.22V19.2803H125.038V20.8712ZM132.348 20.8712H128.106V22.6894H132.235V24.2803H128.106V26.2121H132.348V27.803H126.288V19.2424H132.348V20.8712ZM137.235 27.803H133.864V19.2424H137.235C139.924 19.2424 141.78 20.947 141.78 23.5227C141.742 26.0985 139.886 27.803 137.235 27.803ZM137.235 20.8712H135.682V26.2121H137.235C138.901 26.2121 139.924 25 139.924 23.5606C139.924 22.0076 138.977 20.8712 137.235 20.8712ZM111.894 23.5227C111.894 22.0076 110.985 20.8333 109.242 20.8333H107.689V26.1742H109.242C110.909 26.2121 111.894 25 111.894 23.5227ZM94.9621 22.0076C94.9621 21.2879 94.4318 20.8712 93.6743 20.8712H91.7803V23.1818H93.6743C94.394 23.1818 94.9621 22.7273 94.9621 22.0076ZM68.4092 36.4394C68.4092 35.9091 67.9925 35.4924 67.4622 35.4924H65.1137V37.3485H67.3864C67.9925 37.3485 68.4092 36.9697 68.4092 36.4394ZM67.4622 38.9394H65.1137V40.9091H67.4622C68.144 40.9091 68.5607 40.5303 68.5607 39.9242C68.5607 39.3939 68.1819 38.9394 67.4622 38.9394ZM65.4925 24.7348H68.144L66.8183 21.0606L65.4925 24.7348ZM109.205 20.8712H107.651V26.2121H109.205C110.871 26.2121 111.856 25 111.856 23.5606C111.894 22.0076 110.985 20.8712 109.205 20.8712ZM66.8183 21.0606L65.4925 24.7348H68.144L66.8183 21.0606ZM93.6743 20.8712H91.7803V23.1818H93.6743C94.4318 23.1818 94.9621 22.7652 94.9621 22.0455C94.9621 21.2879 94.394 20.8712 93.6743 20.8712ZM137.235 20.8712H135.682V26.2121H137.235C138.901 26.2121 139.924 25 139.924 23.5606C139.924 22.0076 138.977 20.8712 137.235 20.8712ZM137.235 20.8712H135.682V26.2121H137.235C138.901 26.2121 139.924 25 139.924 23.5606C139.924 22.0076 138.977 20.8712 137.235 20.8712ZM109.205 20.8712H107.651V26.2121H109.205C110.871 26.2121 111.856 25 111.856 23.5606C111.894 22.0076 110.985 20.8712 109.205 20.8712ZM93.6743 20.8712H91.7803V23.1818H93.6743C94.4318 23.1818 94.9621 22.7652 94.9621 22.0455C94.9621 21.2879 94.394 20.8712 93.6743 20.8712ZM66.8183 21.0606L65.4925 24.7348H68.144L66.8183 21.0606ZM109.205 20.8712H107.651V26.2121H109.205C110.871 26.2121 111.856 25 111.856 23.5606C111.894 22.0076 110.985 20.8712 109.205 20.8712ZM66.8183 21.0606L65.4925 24.7348H68.144L66.8183 21.0606ZM93.6743 20.8712H91.7803V23.1818H93.6743C94.4318 23.1818 94.9621 22.7652 94.9621 22.0455C94.9621 21.2879 94.394 20.8712 93.6743 20.8712ZM137.235 20.8712H135.682V26.2121H137.235C138.901 26.2121 139.924 25 139.924 23.5606C139.924 22.0076 138.977 20.8712 137.235 20.8712ZM137.235 20.8712H135.682V26.2121H137.235C138.901 26.2121 139.924 25 139.924 23.5606C139.924 22.0076 138.977 20.8712 137.235 20.8712ZM109.205 20.8712H107.651V26.2121H109.205C110.871 26.2121 111.856 25 111.856 23.5606C111.894 22.0076 110.985 20.8712 109.205 20.8712ZM93.6743 20.8712H91.7803V23.1818H93.6743C94.4318 23.1818 94.9621 22.7652 94.9621 22.0455C94.9621 21.2879 94.394 20.8712 93.6743 20.8712ZM66.8183 21.0606L65.4925 24.7348H68.144L66.8183 21.0606ZM109.205 20.8712H107.651V26.2121H109.205C110.871 26.2121 111.856 25 111.856 23.5606C111.894 22.0076 110.985 20.8712 109.205 20.8712ZM66.8183 21.0606L65.4925 24.7348H68.144L66.8183 21.0606ZM93.6743 20.8712H91.7803V23.1818H93.6743C94.4318 23.1818 94.9621 22.7652 94.9621 22.0455C94.9621 21.2879 94.394 20.8712 93.6743 20.8712ZM137.235 20.8712H135.682V26.2121H137.235C138.901 26.2121 139.924 25 139.924 23.5606C139.924 22.0076 138.977 20.8712 137.235 20.8712ZM137.235 20.8712H135.682V26.2121H137.235C138.901 26.2121 139.924 25 139.924 23.5606C139.924 22.0076 138.977 20.8712 137.235 20.8712ZM109.205 20.8712H107.651V26.2121H109.205C110.871 26.2121 111.856 25 111.856 23.5606C111.894 22.0076 110.985 20.8712 109.205 20.8712ZM93.6743 20.8712H91.7803V23.1818H93.6743C94.4318 23.1818 94.9621 22.7652 94.9621 22.0455C94.9621 21.2879 94.394 20.8712 93.6743 20.8712ZM66.8183 21.0606L65.4925 24.7348H68.144L66.8183 21.0606ZM109.205 20.8712H107.651V26.2121H109.205C110.871 26.2121 111.856 25 111.856 23.5606C111.894 22.0076 110.985 20.8712 109.205 20.8712ZM66.8183 21.0606L65.4925 24.7348H68.144L66.8183 21.0606ZM93.6743 20.8712H91.7803V23.1818H93.6743C94.4318 23.1818 94.9621 22.7652 94.9621 22.0455C94.9621 21.2879 94.394 20.8712 93.6743 20.8712ZM137.235 20.8712H135.682V26.2121H137.235C138.901 26.2121 139.924 25 139.924 23.5606C139.924 22.0076 138.977 20.8712 137.235 20.8712ZM137.235 20.8712H135.682V26.2121H137.235C138.901 26.2121 139.924 25 139.924 23.5606C139.924 22.0076 138.977 20.8712 137.235 20.8712ZM109.205 20.8712H107.651V26.2121H109.205C110.871 26.2121 111.856 25 111.856 23.5606C111.894 22.0076 110.985 20.8712 109.205 20.8712ZM93.6743 20.8712H91.7803V23.1818H93.6743C94.4318 23.1818 94.9621 22.7652 94.9621 22.0455C94.9621 21.2879 94.394 20.8712 93.6743 20.8712ZM66.8183 21.0606L65.4925 24.7348H68.144L66.8183 21.0606ZM109.205 20.8712H107.651V26.2121H109.205C110.871 26.2121 111.856 25 111.856 23.5606C111.894 22.0076 110.985 20.8712 109.205 20.8712ZM66.8183 21.0606L65.4925 24.7348H68.144L66.8183 21.0606ZM93.6743 20.8712H91.7803V23.1818H93.6743C94.4318 23.1818 94.9621 22.7652 94.9621 22.0455C94.9621 21.2879 94.394 20.8712 93.6743 20.8712ZM109.205 20.8712H107.651V26.2121H109.205C110.871 26.2121 111.856 25 111.856 23.5606C111.894 22.0076 110.985 20.8712 109.205 20.8712ZM93.6743 20.8712H91.7803V23.1818H93.6743C94.4318 23.1818 94.9621 22.7652 94.9621 22.0455C94.9621 21.2879 94.394 20.8712 93.6743 20.8712ZM66.8183 21.0606L65.4925 24.7348H68.144L66.8183 21.0606ZM109.205 20.8712H107.651V26.2121H109.205C110.871 26.2121 111.856 25 111.856 23.5606C111.894 22.0076 110.985 20.8712 109.205 20.8712ZM66.8183 21.0606L65.4925 24.7348H68.144L66.8183 21.0606ZM93.6743 20.8712H91.7803V23.1818H93.6743C94.4318 23.1818 94.9621 22.7652 94.9621 22.0455C94.9621 21.2879 94.394 20.8712 93.6743 20.8712ZM109.205 20.8712H107.651V26.2121H109.205C110.871 26.2121 111.856 25 111.856 23.5606C111.894 22.0076 110.985 20.8712 109.205 20.8712ZM93.6743 20.8712H91.7803V23.1818H93.6743C94.4318 23.1818 94.9621 22.7652 94.9621 22.0455C94.9621 21.2879 94.394 20.8712 93.6743 20.8712ZM66.8183 21.0606L65.4925 24.7348H68.144L66.8183 21.0606ZM66.8183 21.0606L65.4925 24.7348H68.144L66.8183 21.0606ZM93.6743 20.8712H91.7803V23.1818H93.6743C94.4318 23.1818 94.9621 22.7652 94.9621 22.0455C94.9621 21.2879 94.394 20.8712 93.6743 20.8712ZM93.6743 20.8712H91.7803V23.1818H93.6743C94.4318 23.1818 94.9621 22.7652 94.9621 22.0455C94.9621 21.2879 94.394 20.8712 93.6743 20.8712ZM66.8183 21.0606L65.4925 24.7348H68.144L66.8183 21.0606ZM66.8183 21.0606L65.4925 24.7348H68.144L66.8183 21.0606ZM66.8183 21.0606L65.4925 24.7348H68.144L66.8183 21.0606Z" fill="#055B76"/>
<path fill-rule="evenodd" clip-rule="evenodd" d="M47.4244 52.9168C47.8411 52.8031 48.1441 52.5758 48.1441 52.1213C48.1441 51.9319 48.0683 51.7425 47.9168 51.591C47.6895 51.4016 47.4244 51.288 47.1214 51.288H45.8714V54.0152H46.288V52.9925H46.9698L47.7653 54.0152H48.2577L47.4244 52.9168ZM46.288 52.6137V51.6668H47.0835C47.4623 51.6668 47.6895 51.8561 47.6895 52.1213C47.6895 52.4243 47.4244 52.6137 47.0456 52.6137H46.288ZM47.4244 52.9168C47.8411 52.8031 48.1441 52.5758 48.1441 52.1213C48.1441 51.9319 48.0683 51.7425 47.9168 51.591C47.6895 51.4016 47.4244 51.288 47.1214 51.288H45.8714V54.0152H46.288V52.9925H46.9698L47.7653 54.0152H48.2577L47.4244 52.9168ZM46.288 52.6137V51.6668H47.0835C47.4623 51.6668 47.6895 51.8561 47.6895 52.1213C47.6895 52.4243 47.4244 52.6137 47.0456 52.6137H46.288ZM47.4244 52.9168C47.8411 52.8031 48.1441 52.5758 48.1441 52.1213C48.1441 51.9319 48.0683 51.7425 47.9168 51.591C47.6895 51.4016 47.4244 51.288 47.1214 51.288H45.8714V54.0152H46.288V52.9925H46.9698L47.7653 54.0152H48.2577L47.4244 52.9168ZM46.288 52.6137V51.6668H47.0835C47.4623 51.6668 47.6895 51.8561 47.6895 52.1213C47.6895 52.4243 47.4244 52.6137 47.0456 52.6137H46.288ZM47.4244 52.9168C47.8411 52.8031 48.1441 52.5758 48.1441 52.1213C48.1441 51.9319 48.0683 51.7425 47.9168 51.591C47.6895 51.4016 47.4244 51.288 47.1214 51.288H45.8714V54.0152H46.288V52.9925H46.9698L47.7653 54.0152H48.2577L47.4244 52.9168ZM46.288 52.6137V51.6668H47.0835C47.4623 51.6668 47.6895 51.8561 47.6895 52.1213C47.6895 52.4243 47.4244 52.6137 47.0456 52.6137H46.288ZM47.4244 52.9168C47.8411 52.8031 48.1441 52.5758 48.1441 52.1213C48.1441 51.9319 48.0683 51.7425 47.9168 51.591C47.6895 51.4016 47.4244 51.288 47.1214 51.288H45.8714V54.0152H46.288V52.9925H46.9698L47.7653 54.0152H48.2577L47.4244 52.9168ZM46.288 52.6137V51.6668H47.0835C47.4623 51.6668 47.6895 51.8561 47.6895 52.1213C47.6895 52.4243 47.4244 52.6137 47.0456 52.6137H46.288ZM47.4244 52.9168C47.8411 52.8031 48.1441 52.5758 48.1441 52.1213C48.1441 51.9319 48.0683 51.7425 47.9168 51.591C47.6895 51.4016 47.4244 51.288 47.1214 51.288H45.8714V54.0152H46.288V52.9925H46.9698L47.7653 54.0152H48.2577L47.4244 52.9168ZM46.288 52.6137V51.6668H47.0835C47.4623 51.6668 47.6895 51.8561 47.6895 52.1213C47.6895 52.4243 47.4244 52.6137 47.0456 52.6137H46.288ZM47.4244 52.9168C47.8411 52.8031 48.1441 52.5758 48.1441 52.1213C48.1441 51.9319 48.0683 51.7425 47.9168 51.591C47.6895 51.4016 47.4244 51.288 47.1214 51.288H45.8714V54.0152H46.288V52.9925H46.9698L47.7653 54.0152H48.2577L47.4244 52.9168ZM46.288 52.6137V51.6668H47.0835C47.4623 51.6668 47.6895 51.8561 47.6895 52.1213C47.6895 52.4243 47.4244 52.6137 47.0456 52.6137H46.288ZM47.4244 52.9168C47.8411 52.8031 48.1441 52.5758 48.1441 52.1213C48.1441 51.9319 48.0683 51.7425 47.9168 51.591C47.6895 51.4016 47.4244 51.288 47.1214 51.288H45.8714V54.0152H46.288V52.9925H46.9698L47.7653 54.0152H48.2577L47.4244 52.9168ZM46.288 52.6137V51.6668H47.0835C47.4623 51.6668 47.6895 51.8561 47.6895 52.1213C47.6895 52.4243 47.4244 52.6137 47.0456 52.6137H46.288ZM47.4244 52.9168C47.8411 52.8031 48.1441 52.5758 48.1441 52.1213C48.1441 51.9319 48.0683 51.7425 47.9168 51.591C47.6895 51.4016 47.4244 51.288 47.1214 51.288H45.8714V54.0152H46.288V52.9925H46.9698L47.7653 54.0152H48.2577L47.4244 52.9168ZM46.288 52.6137V51.6668H47.0835C47.4623 51.6668 47.6895 51.8561 47.6895 52.1213C47.6895 52.4243 47.4244 52.6137 47.0456 52.6137H46.288ZM47.4244 52.9168C47.8411 52.8031 48.1441 52.5758 48.1441 52.1213C48.1441 51.9319 48.0683 51.7425 47.9168 51.591C47.6895 51.4016 47.4244 51.288 47.1214 51.288H45.8714V54.0152H46.288V52.9925H46.9698L47.7653 54.0152H48.2577L47.4244 52.9168ZM46.288 52.6137V51.6668H47.0835C47.4623 51.6668 47.6895 51.8561 47.6895 52.1213C47.6895 52.4243 47.4244 52.6137 47.0456 52.6137H46.288ZM47.4244 52.9168C47.8411 52.8031 48.1441 52.5758 48.1441 52.1213C48.1441 51.9319 48.0683 51.7425 47.9168 51.591C47.6895 51.4016 47.4244 51.288 47.1214 51.288H45.8714V54.0152H46.288V52.9925H46.9698L47.7653 54.0152H48.2577L47.4244 52.9168ZM46.288 52.6137V51.6668H47.0835C47.4623 51.6668 47.6895 51.8561 47.6895 52.1213C47.6895 52.4243 47.4244 52.6137 47.0456 52.6137H46.288ZM47.4244 52.9168C47.8411 52.8031 48.1441 52.5758 48.1441 52.1213C48.1441 51.9319 48.0683 51.7425 47.9168 51.591C47.6895 51.4016 47.4244 51.288 47.1214 51.288H45.8714V54.0152H46.288V52.9925H46.9698L47.7653 54.0152H48.2577L47.4244 52.9168ZM46.288 52.6137V51.6668H47.0835C47.4623 51.6668 47.6895 51.8561 47.6895 52.1213C47.6895 52.4243 47.4244 52.6137 47.0456 52.6137H46.288ZM47.4244 52.9168C47.8411 52.8031 48.1441 52.5758 48.1441 52.1213C48.1441 51.9319 48.0683 51.7425 47.9168 51.591C47.6895 51.4016 47.4244 51.288 47.1214 51.288H45.8714V54.0152H46.288V52.9925H46.9698L47.7653 54.0152H48.2577L47.4244 52.9168ZM46.288 52.6137V51.6668H47.0835C47.4623 51.6668 47.6895 51.8561 47.6895 52.1213C47.6895 52.4243 47.4244 52.6137 47.0456 52.6137H46.288ZM47.4244 52.9168C47.8411 52.8031 48.1441 52.5758 48.1441 52.1213C48.1441 51.9319 48.0683 51.7425 47.9168 51.591C47.6895 51.4016 47.4244 51.288 47.1214 51.288H45.8714V54.0152H46.288V52.9925H46.9698L47.7653 54.0152H48.2577L47.4244 52.9168ZM46.288 52.6137V51.6668H47.0835C47.4623 51.6668 47.6895 51.8561 47.6895 52.1213C47.6895 52.4243 47.4244 52.6137 47.0456 52.6137H46.288ZM47.4244 52.9168C47.8411 52.8031 48.1441 52.5758 48.1441 52.1213C48.1441 51.9319 48.0683 51.7425 47.9168 51.591C47.6895 51.4016 47.4244 51.288 47.1214 51.288H45.8714V54.0152H46.288V52.9925H46.9698L47.7653 54.0152H48.2577L47.4244 52.9168ZM46.288 52.6137V51.6668H47.0835C47.4623 51.6668 47.6895 51.8561 47.6895 52.1213C47.6895 52.4243 47.4244 52.6137 47.0456 52.6137H46.288ZM47.4244 52.9168C47.8411 52.8031 48.1441 52.5758 48.1441 52.1213C48.1441 51.9319 48.0683 51.7425 47.9168 51.591C47.6895 51.4016 47.4244 51.288 47.1214 51.288H45.8714V54.0152H46.288V52.9925H46.9698L47.7653 54.0152H48.2577L47.4244 52.9168ZM46.288 52.6137V51.6668H47.0835C47.4623 51.6668 47.6895 51.8561 47.6895 52.1213C47.6895 52.4243 47.4244 52.6137 47.0456 52.6137H46.288ZM47.4244 52.9168C47.8411 52.8031 48.1441 52.5758 48.1441 52.1213C48.1441 51.9319 48.0683 51.7425 47.9168 51.591C47.6895 51.4016 47.4244 51.288 47.1214 51.288H45.8714V54.0152H46.288V52.9925H46.9698L47.7653 54.0152H48.2577L47.4244 52.9168ZM46.288 52.6137V51.6668H47.0835C47.4623 51.6668 47.6895 51.8561 47.6895 52.1213C47.6895 52.4243 47.4244 52.6137 47.0456 52.6137H46.288ZM47.4244 52.9168C47.8411 52.8031 48.1441 52.5758 48.1441 52.1213C48.1441 51.9319 48.0683 51.7425 47.9168 51.591C47.6895 51.4016 47.4244 51.288 47.1214 51.288H45.8714V54.0152H46.288V52.9925H46.9698L47.7653 54.0152H48.2577L47.4244 52.9168ZM46.288 52.6137V51.6668H47.0835C47.4623 51.6668 47.6895 51.8561 47.6895 52.1213C47.6895 52.4243 47.4244 52.6137 47.0456 52.6137H46.288ZM47.4244 52.9168C47.8411 52.8031 48.1441 52.5758 48.1441 52.1213C48.1441 51.9319 48.0683 51.7425 47.9168 51.591C47.6895 51.4016 47.4244 51.288 47.1214 51.288H45.8714V54.0152H46.288V52.9925H46.9698L47.7653 54.0152H48.2577L47.4244 52.9168ZM46.288 52.6137V51.6668H47.0835C47.4623 51.6668 47.6895 51.8561 47.6895 52.1213C47.6895 52.4243 47.4244 52.6137 47.0456 52.6137H46.288ZM47.4244 52.9168C47.8411 52.8031 48.1441 52.5758 48.1441 52.1213C48.1441 51.9319 48.0683 51.7425 47.9168 51.591C47.6895 51.4016 47.4244 51.288 47.1214 51.288H45.8714V54.0152H46.288V52.9925H46.9698L47.7653 54.0152H48.2577L47.4244 52.9168ZM46.288 52.6137V51.6668H47.0835C47.4623 51.6668 47.6895 51.8561 47.6895 52.1213C47.6895 52.4243 47.4244 52.6137 47.0456 52.6137H46.288ZM46.932 50.0758C45.4926 50.0758 44.2805 51.288 44.2805 52.7274V52.7652C44.2805 54.2046 45.4926 55.4168 46.932 55.4168C48.3714 55.4168 49.5835 54.2046 49.5835 52.7652V52.7274C49.5835 51.2501 48.3714 50.0758 46.932 50.0758ZM49.3183 52.7274C49.3183 54.0531 48.2198 55.1516 46.8941 55.1516C45.5683 55.1516 44.5077 54.0531 44.4699 52.7652V52.7274C44.4699 51.4016 45.5683 50.3031 46.8941 50.3031C48.2577 50.3031 49.3183 51.3637 49.3183 52.7274ZM48.1441 52.1213C48.1441 51.894 48.0683 51.7046 47.9168 51.591C47.6895 51.4016 47.4244 51.288 47.1214 51.288H45.8714V54.0152H46.288V52.9925H46.9698L47.7653 54.0152H48.2577L47.4244 52.9168C47.8411 52.8031 48.1441 52.538 48.1441 52.1213ZM46.288 52.6137V51.6668H47.0835C47.4623 51.6668 47.6895 51.8561 47.6895 52.1213C47.6895 52.4243 47.4244 52.6137 47.0456 52.6137H46.288ZM47.4244 52.9168C47.8411 52.8031 48.1441 52.5758 48.1441 52.1213C48.1441 51.9319 48.0683 51.7425 47.9168 51.591C47.6895 51.4016 47.4244 51.288 47.1214 51.288H45.8714V54.0152H46.288V52.9925H46.9698L47.7653 54.0152H48.2577L47.4244 52.9168ZM46.288 52.6137V51.6668H47.0835C47.4623 51.6668 47.6895 51.8561 47.6895 52.1213C47.6895 52.4243 47.4244 52.6137 47.0456 52.6137H46.288ZM47.4244 52.9168C47.8411 52.8031 48.1441 52.5758 48.1441 52.1213C48.1441 51.9319 48.0683 51.7425 47.9168 51.591C47.6895 51.4016 47.4244 51.288 47.1214 51.288H45.8714V54.0152H46.288V52.9925H46.9698L47.7653 54.0152H48.2577L47.4244 52.9168ZM46.288 52.6137V51.6668H47.0835C47.4623 51.6668 47.6895 51.8561 47.6895 52.1213C47.6895 52.4243 47.4244 52.6137 47.0456 52.6137H46.288ZM47.4244 52.9168C47.8411 52.8031 48.1441 52.5758 48.1441 52.1213C48.1441 51.9319 48.0683 51.7425 47.9168 51.591C47.6895 51.4016 47.4244 51.288 47.1214 51.288H45.8714V54.0152H46.288V52.9925H46.9698L47.7653 54.0152H48.2577L47.4244 52.9168ZM46.288 52.6137V51.6668H47.0835C47.4623 51.6668 47.6895 51.8561 47.6895 52.1213C47.6895 52.4243 47.4244 52.6137 47.0456 52.6137H46.288ZM47.4244 52.9168C47.8411 52.8031 48.1441 52.5758 48.1441 52.1213C48.1441 51.9319 48.0683 51.7425 47.9168 51.591C47.6895 51.4016 47.4244 51.288 47.1214 51.288H45.8714V54.0152H46.288V52.9925H46.9698L47.7653 54.0152H48.2577L47.4244 52.9168ZM46.288 52.6137V51.6668H47.0835C47.4623 51.6668 47.6895 51.8561 47.6895 52.1213C47.6895 52.4243 47.4244 52.6137 47.0456 52.6137H46.288ZM47.4244 52.9168C47.8411 52.8031 48.1441 52.5758 48.1441 52.1213C48.1441 51.9319 48.0683 51.7425 47.9168 51.591C47.6895 51.4016 47.4244 51.288 47.1214 51.288H45.8714V54.0152H46.288V52.9925H46.9698L47.7653 54.0152H48.2577L47.4244 52.9168ZM46.288 52.6137V51.6668H47.0835C47.4623 51.6668 47.6895 51.8561 47.6895 52.1213C47.6895 52.4243 47.4244 52.6137 47.0456 52.6137H46.288ZM47.4244 52.9168C47.8411 52.8031 48.1441 52.5758 48.1441 52.1213C48.1441 51.9319 48.0683 51.7425 47.9168 51.591C47.6895 51.4016 47.4244 51.288 47.1214 51.288H45.8714V54.0152H46.288V52.9925H46.9698L47.7653 54.0152H48.2577L47.4244 52.9168ZM46.288 52.6137V51.6668H47.0835C47.4623 51.6668 47.6895 51.8561 47.6895 52.1213C47.6895 52.4243 47.4244 52.6137 47.0456 52.6137H46.288ZM47.4244 52.9168C47.8411 52.8031 48.1441 52.5758 48.1441 52.1213C48.1441 51.9319 48.0683 51.7425 47.9168 51.591C47.6895 51.4016 47.4244 51.288 47.1214 51.288H45.8714V54.0152H46.288V52.9925H46.9698L47.7653 54.0152H48.2577L47.4244 52.9168ZM46.288 52.6137V51.6668H47.0835C47.4623 51.6668 47.6895 51.8561 47.6895 52.1213C47.6895 52.4243 47.4244 52.6137 47.0456 52.6137H46.288ZM47.4244 52.9168C47.8411 52.8031 48.1441 52.5758 48.1441 52.1213C48.1441 51.9319 48.0683 51.7425 47.9168 51.591C47.6895 51.4016 47.4244 51.288 47.1214 51.288H45.8714V54.0152H46.288V52.9925H46.9698L47.7653 54.0152H48.2577L47.4244 52.9168ZM46.288 52.6137V51.6668H47.0835C47.4623 51.6668 47.6895 51.8561 47.6895 52.1213C47.6895 52.4243 47.4244 52.6137 47.0456 52.6137H46.288ZM47.4244 52.9168C47.8411 52.8031 48.1441 52.5758 48.1441 52.1213C48.1441 51.9319 48.0683 51.7425 47.9168 51.591C47.6895 51.4016 47.4244 51.288 47.1214 51.288H45.8714V54.0152H46.288V52.9925H46.9698L47.7653 54.0152H48.2577L47.4244 52.9168ZM46.288 52.6137V51.6668H47.0835C47.4623 51.6668 47.6895 51.8561 47.6895 52.1213C47.6895 52.4243 47.4244 52.6137 47.0456 52.6137H46.288ZM47.4244 52.9168C47.8411 52.8031 48.1441 52.5758 48.1441 52.1213C48.1441 51.9319 48.0683 51.7425 47.9168 51.591C47.6895 51.4016 47.4244 51.288 47.1214 51.288H45.8714V54.0152H46.288V52.9925H46.9698L47.7653 54.0152H48.2577L47.4244 52.9168ZM46.288 52.6137V51.6668H47.0835C47.4623 51.6668 47.6895 51.8561 47.6895 52.1213C47.6895 52.4243 47.4244 52.6137 47.0456 52.6137H46.288ZM47.4244 52.9168C47.8411 52.8031 48.1441 52.5758 48.1441 52.1213C48.1441 51.9319 48.0683 51.7425 47.9168 51.591C47.6895 51.4016 47.4244 51.288 47.1214 51.288H45.8714V54.0152H46.288V52.9925H46.9698L47.7653 54.0152H48.2577L47.4244 52.9168ZM46.288 52.6137V51.6668H47.0835C47.4623 51.6668 47.6895 51.8561 47.6895 52.1213C47.6895 52.4243 47.4244 52.6137 47.0456 52.6137H46.288ZM47.4244 52.9168C47.8411 52.8031 48.1441 52.5758 48.1441 52.1213C48.1441 51.9319 48.0683 51.7425 47.9168 51.591C47.6895 51.4016 47.4244 51.288 47.1214 51.288H45.8714V54.0152H46.288V52.9925H46.9698L47.7653 54.0152H48.2577L47.4244 52.9168ZM46.288 52.6137V51.6668H47.0835C47.4623 51.6668 47.6895 51.8561 47.6895 52.1213C47.6895 52.4243 47.4244 52.6137 47.0456 52.6137H46.288ZM47.4244 52.9168C47.8411 52.8031 48.1441 52.5758 48.1441 52.1213C48.1441 51.9319 48.0683 51.7425 47.9168 51.591C47.6895 51.4016 47.4244 51.288 47.1214 51.288H45.8714V54.0152H46.288V52.9925H46.9698L47.7653 54.0152H48.2577L47.4244 52.9168ZM46.288 52.6137V51.6668H47.0835C47.4623 51.6668 47.6895 51.8561 47.6895 52.1213C47.6895 52.4243 47.4244 52.6137 47.0456 52.6137H46.288ZM47.4244 52.9168C47.8411 52.8031 48.1441 52.5758 48.1441 52.1213C48.1441 51.9319 48.0683 51.7425 47.9168 51.591C47.6895 51.4016 47.4244 51.288 47.1214 51.288H45.8714V54.0152H46.288V52.9925H46.9698L47.7653 54.0152H48.2577L47.4244 52.9168ZM46.288 52.6137V51.6668H47.0835C47.4623 51.6668 47.6895 51.8561 47.6895 52.1213C47.6895 52.4243 47.4244 52.6137 47.0456 52.6137H46.288ZM47.4244 52.9168C47.8411 52.8031 48.1441 52.5758 48.1441 52.1213C48.1441 51.9319 48.0683 51.7425 47.9168 51.591C47.6895 51.4016 47.4244 51.288 47.1214 51.288H45.8714V54.0152H46.288V52.9925H46.9698L47.7653 54.0152H48.2577L47.4244 52.9168ZM46.288 52.6137V51.6668H47.0835C47.4623 51.6668 47.6895 51.8561 47.6895 52.1213C47.6895 52.4243 47.4244 52.6137 47.0456 52.6137H46.288ZM47.4244 52.9168C47.8411 52.8031 48.1441 52.5758 48.1441 52.1213C48.1441 51.9319 48.0683 51.7425 47.9168 51.591C47.6895 51.4016 47.4244 51.288 47.1214 51.288H45.8714V54.0152H46.288V52.9925H46.9698L47.7653 54.0152H48.2577L47.4244 52.9168ZM46.288 52.6137V51.6668H47.0835C47.4623 51.6668 47.6895 51.8561 47.6895 52.1213C47.6895 52.4243 47.4244 52.6137 47.0456 52.6137H46.288ZM47.4244 52.9168C47.8411 52.8031 48.1441 52.5758 48.1441 52.1213C48.1441 51.9319 48.0683 51.7425 47.9168 51.591C47.6895 51.4016 47.4244 51.288 47.1214 51.288H45.8714V54.0152H46.288V52.9925H46.9698L47.7653 54.0152H48.2577L47.4244 52.9168ZM46.288 52.6137V51.6668H47.0835C47.4623 51.6668 47.6895 51.8561 47.6895 52.1213C47.6895 52.4243 47.4244 52.6137 47.0456 52.6137H46.288ZM47.4244 52.9168C47.8411 52.8031 48.1441 52.5758 48.1441 52.1213C48.1441 51.9319 48.0683 51.7425 47.9168 51.591C47.6895 51.4016 47.4244 51.288 47.1214 51.288H45.8714V54.0152H46.288V52.9925H46.9698L47.7653 54.0152H48.2577L47.4244 52.9168ZM46.288 52.6137V51.6668H47.0835C47.4623 51.6668 47.6895 51.8561 47.6895 52.1213C47.6895 52.4243 47.4244 52.6137 47.0456 52.6137H46.288ZM42.7653 51.8561C42.538 50.341 41.932 50.0001 40.7199 49.4698C41.629 48.9395 42.1971 48.144 42.1971 47.0455C42.1971 44.8865 40.4168 44.0152 38.485 44.0152H33.1062V55.5304H38.485C40.7577 55.4925 43.182 54.4698 42.7653 51.8561ZM35.5684 46.1743H38.3714C40.1138 46.1743 40.1896 48.6365 38.485 48.6365H35.5684V46.1743ZM38.6744 53.2955H35.5305V50.6819H38.6744C40.985 50.6819 40.8335 53.2955 38.6744 53.2955ZM37.0077 36.5152H17.5002L16.8184 38.8258H22.0457L22.9926 42.0077H31.5532L32.5002 38.8258H37.7274L37.0077 36.5152ZM35.379 13.144L28.4472 8.10615C27.4623 7.42433 26.9699 6.21221 27.8032 5.07585L27.1972 4.65918L23.2578 10.1137C21.4017 12.6895 22.0835 17.0455 24.6214 18.9016L31.0987 23.6365C32.4244 24.5834 32.5759 27.0455 31.629 28.3334L32.1972 28.7501L36.6668 22.4622C38.6744 19.5834 38.5608 15.4168 35.379 13.144ZM32.0456 51.8561C31.8184 50.341 31.2123 50.0001 30.0002 49.4319C30.9093 48.9016 31.4775 48.1061 31.4775 47.0077C31.4775 44.8486 29.6972 43.9774 27.7653 43.9774H22.3487V55.4925H27.7275C30.0002 55.4925 32.4244 54.4698 32.0456 51.8561ZM24.8108 46.1743H27.6138C29.3563 46.1743 29.432 48.6365 27.7275 48.6365H24.8108V46.1743ZM27.9547 53.2955H24.8108V50.6819H27.9547C30.2275 50.6819 30.1138 53.2955 27.9547 53.2955ZM28.8638 25.644L24.129 22.1971C23.5608 21.7804 23.4851 21.2122 23.826 20.5683L23.1441 20.038L20.6063 23.5228C19.3563 25.2652 19.7351 28.3713 21.4775 29.6213L26.1744 32.9925C26.9699 33.5607 27.0457 34.1668 26.6669 34.7728L27.3487 35.2652L29.735 31.9698C31.1744 30.0001 31.0608 27.1971 28.8638 25.644ZM21.326 51.8561C21.0987 50.341 20.4926 50.0001 19.2805 49.4319C20.1896 48.9016 20.7578 48.1061 20.7578 47.0077C20.7578 44.8486 18.9775 43.9774 17.0457 43.9774H11.629V55.4925H17.0078C19.2805 55.4925 21.7048 54.4698 21.326 51.8561ZM14.0533 46.1743H16.8563C18.5987 46.1743 18.6745 48.6365 16.9699 48.6365H14.0533V46.1743ZM17.1972 53.2955H14.0533V50.6819H17.1972C19.5078 50.6819 19.3563 53.2955 17.1972 53.2955Z" fill="white"/>
<path fill-rule="evenodd" clip-rule="evenodd" d="M35.379 13.144L28.4472 8.10615C27.4623 7.42433 26.9699 6.21221 27.8032 5.07585L27.1972 4.65918L23.2578 10.1137C21.4017 12.6895 22.0835 17.0455 24.6214 18.9016L31.0987 23.6365C32.4244 24.5834 32.5759 27.0455 31.629 28.3334L32.1972 28.7501L36.6668 22.4622C38.6744 19.5834 38.5608 15.4168 35.379 13.144ZM28.8638 25.644L24.129 22.1971C23.5608 21.7804 23.4851 21.2122 23.826 20.5683L23.1441 20.038L20.6063 23.5228C19.3563 25.2652 19.7351 28.3713 21.4775 29.6213L26.1744 32.9925C26.9699 33.5607 27.0457 34.1668 26.6669 34.7728L27.3487 35.2652L29.735 31.9698C31.1744 30.0001 31.0608 27.1971 28.8638 25.644ZM37.0077 36.5152H17.5002L16.8184 38.8258H22.0457L22.9926 42.0077H31.5532L32.5002 38.8258H37.7274L37.0077 36.5152ZM47.4244 52.9168C47.8411 52.8031 48.1441 52.5758 48.1441 52.1213C48.1441 51.9319 48.0683 51.7425 47.9168 51.591C47.6895 51.4016 47.4244 51.288 47.1214 51.288H45.8714V54.0152H46.288V52.9925H46.9698L47.7653 54.0152H48.2577L47.4244 52.9168ZM46.288 52.6137V51.6668H47.0835C47.4623 51.6668 47.6895 51.8561 47.6895 52.1213C47.6895 52.4243 47.4244 52.6137 47.0456 52.6137H46.288ZM47.4244 52.9168C47.8411 52.8031 48.1441 52.5758 48.1441 52.1213C48.1441 51.9319 48.0683 51.7425 47.9168 51.591C47.6895 51.4016 47.4244 51.288 47.1214 51.288H45.8714V54.0152H46.288V52.9925H46.9698L47.7653 54.0152H48.2577L47.4244 52.9168ZM46.288 52.6137V51.6668H47.0835C47.4623 51.6668 47.6895 51.8561 47.6895 52.1213C47.6895 52.4243 47.4244 52.6137 47.0456 52.6137H46.288ZM47.4244 52.9168C47.8411 52.8031 48.1441 52.5758 48.1441 52.1213C48.1441 51.9319 48.0683 51.7425 47.9168 51.591C47.6895 51.4016 47.4244 51.288 47.1214 51.288H45.8714V54.0152H46.288V52.9925H46.9698L47.7653 54.0152H48.2577L47.4244 52.9168ZM46.288 52.6137V51.6668H47.0835C47.4623 51.6668 47.6895 51.8561 47.6895 52.1213C47.6895 52.4243 47.4244 52.6137 47.0456 52.6137H46.288ZM47.4244 52.9168C47.8411 52.8031 48.1441 52.5758 48.1441 52.1213C48.1441 51.9319 48.0683 51.7425 47.9168 51.591C47.6895 51.4016 47.4244 51.288 47.1214 51.288H45.8714V54.0152H46.288V52.9925H46.9698L47.7653 54.0152H48.2577L47.4244 52.9168ZM46.288 52.6137V51.6668H47.0835C47.4623 51.6668 47.6895 51.8561 47.6895 52.1213C47.6895 52.4243 47.4244 52.6137 47.0456 52.6137H46.288ZM47.4244 52.9168C47.8411 52.8031 48.1441 52.5758 48.1441 52.1213C48.1441 51.9319 48.0683 51.7425 47.9168 51.591C47.6895 51.4016 47.4244 51.288 47.1214 51.288H45.8714V54.0152H46.288V52.9925H46.9698L47.7653 54.0152H48.2577L47.4244 52.9168ZM46.288 52.6137V51.6668H47.0835C47.4623 51.6668 47.6895 51.8561 47.6895 52.1213C47.6895 52.4243 47.4244 52.6137 47.0456 52.6137H46.288ZM47.4244 52.9168C47.8411 52.8031 48.1441 52.5758 48.1441 52.1213C48.1441 51.9319 48.0683 51.7425 47.9168 51.591C47.6895 51.4016 47.4244 51.288 47.1214 51.288H45.8714V54.0152H46.288V52.9925H46.9698L47.7653 54.0152H48.2577L47.4244 52.9168ZM46.288 52.6137V51.6668H47.0835C47.4623 51.6668 47.6895 51.8561 47.6895 52.1213C47.6895 52.4243 47.4244 52.6137 47.0456 52.6137H46.288ZM47.4244 52.9168C47.8411 52.8031 48.1441 52.5758 48.1441 52.1213C48.1441 51.9319 48.0683 51.7425 47.9168 51.591C47.6895 51.4016 47.4244 51.288 47.1214 51.288H45.8714V54.0152H46.288V52.9925H46.9698L47.7653 54.0152H48.2577L47.4244 52.9168ZM46.288 52.6137V51.6668H47.0835C47.4623 51.6668 47.6895 51.8561 47.6895 52.1213C47.6895 52.4243 47.4244 52.6137 47.0456 52.6137H46.288ZM47.4244 52.9168C47.8411 52.8031 48.1441 52.5758 48.1441 52.1213C48.1441 51.9319 48.0683 51.7425 47.9168 51.591C47.6895 51.4016 47.4244 51.288 47.1214 51.288H45.8714V54.0152H46.288V52.9925H46.9698L47.7653 54.0152H48.2577L47.4244 52.9168ZM46.288 52.6137V51.6668H47.0835C47.4623 51.6668 47.6895 51.8561 47.6895 52.1213C47.6895 52.4243 47.4244 52.6137 47.0456 52.6137H46.288ZM47.4244 52.9168C47.8411 52.8031 48.1441 52.5758 48.1441 52.1213C48.1441 51.9319 48.0683 51.7425 47.9168 51.591C47.6895 51.4016 47.4244 51.288 47.1214 51.288H45.8714V54.0152H46.288V52.9925H46.9698L47.7653 54.0152H48.2577L47.4244 52.9168ZM46.288 52.6137V51.6668H47.0835C47.4623 51.6668 47.6895 51.8561 47.6895 52.1213C47.6895 52.4243 47.4244 52.6137 47.0456 52.6137H46.288ZM47.4244 52.9168C47.8411 52.8031 48.1441 52.5758 48.1441 52.1213C48.1441 51.9319 48.0683 51.7425 47.9168 51.591C47.6895 51.4016 47.4244 51.288 47.1214 51.288H45.8714V54.0152H46.288V52.9925H46.9698L47.7653 54.0152H48.2577L47.4244 52.9168ZM46.288 52.6137V51.6668H47.0835C47.4623 51.6668 47.6895 51.8561 47.6895 52.1213C47.6895 52.4243 47.4244 52.6137 47.0456 52.6137H46.288ZM47.4244 52.9168C47.8411 52.8031 48.1441 52.5758 48.1441 52.1213C48.1441 51.9319 48.0683 51.7425 47.9168 51.591C47.6895 51.4016 47.4244 51.288 47.1214 51.288H45.8714V54.0152H46.288V52.9925H46.9698L47.7653 54.0152H48.2577L47.4244 52.9168ZM46.288 52.6137V51.6668H47.0835C47.4623 51.6668 47.6895 51.8561 47.6895 52.1213C47.6895 52.4243 47.4244 52.6137 47.0456 52.6137H46.288ZM47.4244 52.9168C47.8411 52.8031 48.1441 52.5758 48.1441 52.1213C48.1441 51.9319 48.0683 51.7425 47.9168 51.591C47.6895 51.4016 47.4244 51.288 47.1214 51.288H45.8714V54.0152H46.288V52.9925H46.9698L47.7653 54.0152H48.2577L47.4244 52.9168ZM46.288 52.6137V51.6668H47.0835C47.4623 51.6668 47.6895 51.8561 47.6895 52.1213C47.6895 52.4243 47.4244 52.6137 47.0456 52.6137H46.288ZM47.4244 52.9168C47.8411 52.8031 48.1441 52.5758 48.1441 52.1213C48.1441 51.9319 48.0683 51.7425 47.9168 51.591C47.6895 51.4016 47.4244 51.288 47.1214 51.288H45.8714V54.0152H46.288V52.9925H46.9698L47.7653 54.0152H48.2577L47.4244 52.9168ZM46.288 52.6137V51.6668H47.0835C47.4623 51.6668 47.6895 51.8561 47.6895 52.1213C47.6895 52.4243 47.4244 52.6137 47.0456 52.6137H46.288ZM47.4244 52.9168C47.8411 52.8031 48.1441 52.5758 48.1441 52.1213C48.1441 51.9319 48.0683 51.7425 47.9168 51.591C47.6895 51.4016 47.4244 51.288 47.1214 51.288H45.8714V54.0152H46.288V52.9925H46.9698L47.7653 54.0152H48.2577L47.4244 52.9168ZM46.288 52.6137V51.6668H47.0835C47.4623 51.6668 47.6895 51.8561 47.6895 52.1213C47.6895 52.4243 47.4244 52.6137 47.0456 52.6137H46.288ZM47.4244 52.9168C47.8411 52.8031 48.1441 52.5758 48.1441 52.1213C48.1441 51.9319 48.0683 51.7425 47.9168 51.591C47.6895 51.4016 47.4244 51.288 47.1214 51.288H45.8714V54.0152H46.288V52.9925H46.9698L47.7653 54.0152H48.2577L47.4244 52.9168ZM46.288 52.6137V51.6668H47.0835C47.4623 51.6668 47.6895 51.8561 47.6895 52.1213C47.6895 52.4243 47.4244 52.6137 47.0456 52.6137H46.288ZM47.4244 52.9168C47.8411 52.8031 48.1441 52.5758 48.1441 52.1213C48.1441 51.9319 48.0683 51.7425 47.9168 51.591C47.6895 51.4016 47.4244 51.288 47.1214 51.288H45.8714V54.0152H46.288V52.9925H46.9698L47.7653 54.0152H48.2577L47.4244 52.9168ZM46.288 52.6137V51.6668H47.0835C47.4623 51.6668 47.6895 51.8561 47.6895 52.1213C47.6895 52.4243 47.4244 52.6137 47.0456 52.6137H46.288ZM47.4244 52.9168C47.8411 52.8031 48.1441 52.5758 48.1441 52.1213C48.1441 51.9319 48.0683 51.7425 47.9168 51.591C47.6895 51.4016 47.4244 51.288 47.1214 51.288H45.8714V54.0152H46.288V52.9925H46.9698L47.7653 54.0152H48.2577L47.4244 52.9168ZM46.288 52.6137V51.6668H47.0835C47.4623 51.6668 47.6895 51.8561 47.6895 52.1213C47.6895 52.4243 47.4244 52.6137 47.0456 52.6137H46.288ZM47.4244 52.9168C47.8411 52.8031 48.1441 52.5758 48.1441 52.1213C48.1441 51.9319 48.0683 51.7425 47.9168 51.591C47.6895 51.4016 47.4244 51.288 47.1214 51.288H45.8714V54.0152H46.288V52.9925H46.9698L47.7653 54.0152H48.2577L47.4244 52.9168ZM46.288 52.6137V51.6668H47.0835C47.4623 51.6668 47.6895 51.8561 47.6895 52.1213C47.6895 52.4243 47.4244 52.6137 47.0456 52.6137H46.288ZM47.4244 52.9168C47.8411 52.8031 48.1441 52.5758 48.1441 52.1213C48.1441 51.9319 48.0683 51.7425 47.9168 51.591C47.6895 51.4016 47.4244 51.288 47.1214 51.288H45.8714V54.0152H46.288V52.9925H46.9698L47.7653 54.0152H48.2577L47.4244 52.9168ZM46.288 52.6137V51.6668H47.0835C47.4623 51.6668 47.6895 51.8561 47.6895 52.1213C47.6895 52.4243 47.4244 52.6137 47.0456 52.6137H46.288ZM47.4244 52.9168C47.8411 52.8031 48.1441 52.5758 48.1441 52.1213C48.1441 51.9319 48.0683 51.7425 47.9168 51.591C47.6895 51.4016 47.4244 51.288 47.1214 51.288H45.8714V54.0152H46.288V52.9925H46.9698L47.7653 54.0152H48.2577L47.4244 52.9168ZM46.288 52.6137V51.6668H47.0835C47.4623 51.6668 47.6895 51.8561 47.6895 52.1213C47.6895 52.4243 47.4244 52.6137 47.0456 52.6137H46.288ZM47.4244 52.9168C47.8411 52.8031 48.1441 52.5758 48.1441 52.1213C48.1441 51.9319 48.0683 51.7425 47.9168 51.591C47.6895 51.4016 47.4244 51.288 47.1214 51.288H45.8714V54.0152H46.288V52.9925H46.9698L47.7653 54.0152H48.2577L47.4244 52.9168ZM46.288 52.6137V51.6668H47.0835C47.4623 51.6668 47.6895 51.8561 47.6895 52.1213C47.6895 52.4243 47.4244 52.6137 47.0456 52.6137H46.288ZM47.4244 52.9168C47.8411 52.8031 48.1441 52.5758 48.1441 52.1213C48.1441 51.9319 48.0683 51.7425 47.9168 51.591C47.6895 51.4016 47.4244 51.288 47.1214 51.288H45.8714V54.0152H46.288V52.9925H46.9698L47.7653 54.0152H48.2577L47.4244 52.9168ZM46.288 52.6137V51.6668H47.0835C47.4623 51.6668 47.6895 51.8561 47.6895 52.1213C47.6895 52.4243 47.4244 52.6137 47.0456 52.6137H46.288ZM47.4244 52.9168C47.8411 52.8031 48.1441 52.5758 48.1441 52.1213C48.1441 51.9319 48.0683 51.7425 47.9168 51.591C47.6895 51.4016 47.4244 51.288 47.1214 51.288H45.8714V54.0152H46.288V52.9925H46.9698L47.7653 54.0152H48.2577L47.4244 52.9168ZM46.288 52.6137V51.6668H47.0835C47.4623 51.6668 47.6895 51.8561 47.6895 52.1213C47.6895 52.4243 47.4244 52.6137 47.0456 52.6137H46.288ZM47.4244 52.9168C47.8411 52.8031 48.1441 52.5758 48.1441 52.1213C48.1441 51.9319 48.0683 51.7425 47.9168 51.591C47.6895 51.4016 47.4244 51.288 47.1214 51.288H45.8714V54.0152H46.288V52.9925H46.9698L47.7653 54.0152H48.2577L47.4244 52.9168ZM46.288 52.6137V51.6668H47.0835C47.4623 51.6668 47.6895 51.8561 47.6895 52.1213C47.6895 52.4243 47.4244 52.6137 47.0456 52.6137H46.288ZM47.4244 52.9168C47.8411 52.8031 48.1441 52.5758 48.1441 52.1213C48.1441 51.9319 48.0683 51.7425 47.9168 51.591C47.6895 51.4016 47.4244 51.288 47.1214 51.288H45.8714V54.0152H46.288V52.9925H46.9698L47.7653 54.0152H48.2577L47.4244 52.9168ZM46.288 52.6137V51.6668H47.0835C47.4623 51.6668 47.6895 51.8561 47.6895 52.1213C47.6895 52.4243 47.4244 52.6137 47.0456 52.6137H46.288ZM47.4244 52.9168C47.8411 52.8031 48.1441 52.5758 48.1441 52.1213C48.1441 51.9319 48.0683 51.7425 47.9168 51.591C47.6895 51.4016 47.4244 51.288 47.1214 51.288H45.8714V54.0152H46.288V52.9925H46.9698L47.7653 54.0152H48.2577L47.4244 52.9168ZM46.288 52.6137V51.6668H47.0835C47.4623 51.6668 47.6895 51.8561 47.6895 52.1213C47.6895 52.4243 47.4244 52.6137 47.0456 52.6137H46.288ZM47.4244 52.9168C47.8411 52.8031 48.1441 52.5758 48.1441 52.1213C48.1441 51.9319 48.0683 51.7425 47.9168 51.591C47.6895 51.4016 47.4244 51.288 47.1214 51.288H45.8714V54.0152H46.288V52.9925H46.9698L47.7653 54.0152H48.2577L47.4244 52.9168ZM46.288 52.6137V51.6668H47.0835C47.4623 51.6668 47.6895 51.8561 47.6895 52.1213C47.6895 52.4243 47.4244 52.6137 47.0456 52.6137H46.288ZM47.4244 52.9168C47.8411 52.8031 48.1441 52.5758 48.1441 52.1213C48.1441 51.9319 48.0683 51.7425 47.9168 51.591C47.6895 51.4016 47.4244 51.288 47.1214 51.288H45.8714V54.0152H46.288V52.9925H46.9698L47.7653 54.0152H48.2577L47.4244 52.9168ZM46.288 52.6137V51.6668H47.0835C47.4623 51.6668 47.6895 51.8561 47.6895 52.1213C47.6895 52.4243 47.4244 52.6137 47.0456 52.6137H46.288ZM46.932 50.0758C45.4926 50.0758 44.2805 51.288 44.2805 52.7274V52.7652C44.2805 54.2046 45.4926 55.4168 46.932 55.4168C48.3714 55.4168 49.5835 54.2046 49.5835 52.7652V52.7274C49.5835 51.2501 48.3714 50.0758 46.932 50.0758ZM49.3183 52.7274C49.3183 54.0531 48.2198 55.1516 46.8941 55.1516C45.5683 55.1516 44.5077 54.0531 44.4699 52.7652V52.7274C44.4699 51.4016 45.5683 50.3031 46.8941 50.3031C48.2577 50.3031 49.3183 51.3637 49.3183 52.7274ZM48.1441 52.1213C48.1441 51.894 48.0683 51.7046 47.9168 51.591C47.6895 51.4016 47.4244 51.288 47.1214 51.288H45.8714V54.0152H46.288V52.9925H46.9698L47.7653 54.0152H48.2577L47.4244 52.9168C47.8411 52.8031 48.1441 52.538 48.1441 52.1213ZM46.288 52.6137V51.6668H47.0835C47.4623 51.6668 47.6895 51.8561 47.6895 52.1213C47.6895 52.4243 47.4244 52.6137 47.0456 52.6137H46.288ZM47.4244 52.9168C47.8411 52.8031 48.1441 52.5758 48.1441 52.1213C48.1441 51.9319 48.0683 51.7425 47.9168 51.591C47.6895 51.4016 47.4244 51.288 47.1214 51.288H45.8714V54.0152H46.288V52.9925H46.9698L47.7653 54.0152H48.2577L47.4244 52.9168ZM46.288 52.6137V51.6668H47.0835C47.4623 51.6668 47.6895 51.8561 47.6895 52.1213C47.6895 52.4243 47.4244 52.6137 47.0456 52.6137H46.288ZM47.4244 52.9168C47.8411 52.8031 48.1441 52.5758 48.1441 52.1213C48.1441 51.9319 48.0683 51.7425 47.9168 51.591C47.6895 51.4016 47.4244 51.288 47.1214 51.288H45.8714V54.0152H46.288V52.9925H46.9698L47.7653 54.0152H48.2577L47.4244 52.9168ZM46.288 52.6137V51.6668H47.0835C47.4623 51.6668 47.6895 51.8561 47.6895 52.1213C47.6895 52.4243 47.4244 52.6137 47.0456 52.6137H46.288ZM47.4244 52.9168C47.8411 52.8031 48.1441 52.5758 48.1441 52.1213C48.1441 51.9319 48.0683 51.7425 47.9168 51.591C47.6895 51.4016 47.4244 51.288 47.1214 51.288H45.8714V54.0152H46.288V52.9925H46.9698L47.7653 54.0152H48.2577L47.4244 52.9168ZM46.288 52.6137V51.6668H47.0835C47.4623 51.6668 47.6895 51.8561 47.6895 52.1213C47.6895 52.4243 47.4244 52.6137 47.0456 52.6137H46.288ZM47.4244 52.9168C47.8411 52.8031 48.1441 52.5758 48.1441 52.1213C48.1441 51.9319 48.0683 51.7425 47.9168 51.591C47.6895 51.4016 47.4244 51.288 47.1214 51.288H45.8714V54.0152H46.288V52.9925H46.9698L47.7653 54.0152H48.2577L47.4244 52.9168ZM46.288 52.6137V51.6668H47.0835C47.4623 51.6668 47.6895 51.8561 47.6895 52.1213C47.6895 52.4243 47.4244 52.6137 47.0456 52.6137H46.288ZM47.4244 52.9168C47.8411 52.8031 48.1441 52.5758 48.1441 52.1213C48.1441 51.9319 48.0683 51.7425 47.9168 51.591C47.6895 51.4016 47.4244 51.288 47.1214 51.288H45.8714V54.0152H46.288V52.9925H46.9698L47.7653 54.0152H48.2577L47.4244 52.9168ZM46.288 52.6137V51.6668H47.0835C47.4623 51.6668 47.6895 51.8561 47.6895 52.1213C47.6895 52.4243 47.4244 52.6137 47.0456 52.6137H46.288ZM47.4244 52.9168C47.8411 52.8031 48.1441 52.5758 48.1441 52.1213C48.1441 51.9319 48.0683 51.7425 47.9168 51.591C47.6895 51.4016 47.4244 51.288 47.1214 51.288H45.8714V54.0152H46.288V52.9925H46.9698L47.7653 54.0152H48.2577L47.4244 52.9168ZM46.288 52.6137V51.6668H47.0835C47.4623 51.6668 47.6895 51.8561 47.6895 52.1213C47.6895 52.4243 47.4244 52.6137 47.0456 52.6137H46.288ZM47.4244 52.9168C47.8411 52.8031 48.1441 52.5758 48.1441 52.1213C48.1441 51.9319 48.0683 51.7425 47.9168 51.591C47.6895 51.4016 47.4244 51.288 47.1214 51.288H45.8714V54.0152H46.288V52.9925H46.9698L47.7653 54.0152H48.2577L47.4244 52.9168ZM46.288 52.6137V51.6668H47.0835C47.4623 51.6668 47.6895 51.8561 47.6895 52.1213C47.6895 52.4243 47.4244 52.6137 47.0456 52.6137H46.288ZM47.4244 52.9168C47.8411 52.8031 48.1441 52.5758 48.1441 52.1213C48.1441 51.9319 48.0683 51.7425 47.9168 51.591C47.6895 51.4016 47.4244 51.288 47.1214 51.288H45.8714V54.0152H46.288V52.9925H46.9698L47.7653 54.0152H48.2577L47.4244 52.9168ZM46.288 52.6137V51.6668H47.0835C47.4623 51.6668 47.6895 51.8561 47.6895 52.1213C47.6895 52.4243 47.4244 52.6137 47.0456 52.6137H46.288ZM47.4244 52.9168C47.8411 52.8031 48.1441 52.5758 48.1441 52.1213C48.1441 51.9319 48.0683 51.7425 47.9168 51.591C47.6895 51.4016 47.4244 51.288 47.1214 51.288H45.8714V54.0152H46.288V52.9925H46.9698L47.7653 54.0152H48.2577L47.4244 52.9168ZM46.288 52.6137V51.6668H47.0835C47.4623 51.6668 47.6895 51.8561 47.6895 52.1213C47.6895 52.4243 47.4244 52.6137 47.0456 52.6137H46.288ZM47.4244 52.9168C47.8411 52.8031 48.1441 52.5758 48.1441 52.1213C48.1441 51.9319 48.0683 51.7425 47.9168 51.591C47.6895 51.4016 47.4244 51.288 47.1214 51.288H45.8714V54.0152H46.288V52.9925H46.9698L47.7653 54.0152H48.2577L47.4244 52.9168ZM46.288 52.6137V51.6668H47.0835C47.4623 51.6668 47.6895 51.8561 47.6895 52.1213C47.6895 52.4243 47.4244 52.6137 47.0456 52.6137H46.288ZM47.4244 52.9168C47.8411 52.8031 48.1441 52.5758 48.1441 52.1213C48.1441 51.9319 48.0683 51.7425 47.9168 51.591C47.6895 51.4016 47.4244 51.288 47.1214 51.288H45.8714V54.0152H46.288V52.9925H46.9698L47.7653 54.0152H48.2577L47.4244 52.9168ZM46.288 52.6137V51.6668H47.0835C47.4623 51.6668 47.6895 51.8561 47.6895 52.1213C47.6895 52.4243 47.4244 52.6137 47.0456 52.6137H46.288ZM47.4244 52.9168C47.8411 52.8031 48.1441 52.5758 48.1441 52.1213C48.1441 51.9319 48.0683 51.7425 47.9168 51.591C47.6895 51.4016 47.4244 51.288 47.1214 51.288H45.8714V54.0152H46.288V52.9925H46.9698L47.7653 54.0152H48.2577L47.4244 52.9168ZM46.288 52.6137V51.6668H47.0835C47.4623 51.6668 47.6895 51.8561 47.6895 52.1213C47.6895 52.4243 47.4244 52.6137 47.0456 52.6137H46.288ZM47.4244 52.9168C47.8411 52.8031 48.1441 52.5758 48.1441 52.1213C48.1441 51.9319 48.0683 51.7425 47.9168 51.591C47.6895 51.4016 47.4244 51.288 47.1214 51.288H45.8714V54.0152H46.288V52.9925H46.9698L47.7653 54.0152H48.2577L47.4244 52.9168ZM46.288 52.6137V51.6668H47.0835C47.4623 51.6668 47.6895 51.8561 47.6895 52.1213C47.6895 52.4243 47.4244 52.6137 47.0456 52.6137H46.288ZM47.4244 52.9168C47.8411 52.8031 48.1441 52.5758 48.1441 52.1213C48.1441 51.9319 48.0683 51.7425 47.9168 51.591C47.6895 51.4016 47.4244 51.288 47.1214 51.288H45.8714V54.0152H46.288V52.9925H46.9698L47.7653 54.0152H48.2577L47.4244 52.9168ZM46.288 52.6137V51.6668H47.0835C47.4623 51.6668 47.6895 51.8561 47.6895 52.1213C47.6895 52.4243 47.4244 52.6137 47.0456 52.6137H46.288ZM47.4244 52.9168C47.8411 52.8031 48.1441 52.5758 48.1441 52.1213C48.1441 51.9319 48.0683 51.7425 47.9168 51.591C47.6895 51.4016 47.4244 51.288 47.1214 51.288H45.8714V54.0152H46.288V52.9925H46.9698L47.7653 54.0152H48.2577L47.4244 52.9168ZM46.288 52.6137V51.6668H47.0835C47.4623 51.6668 47.6895 51.8561 47.6895 52.1213C47.6895 52.4243 47.4244 52.6137 47.0456 52.6137H46.288ZM47.4244 52.9168C47.8411 52.8031 48.1441 52.5758 48.1441 52.1213C48.1441 51.9319 48.0683 51.7425 47.9168 51.591C47.6895 51.4016 47.4244 51.288 47.1214 51.288H45.8714V54.0152H46.288V52.9925H46.9698L47.7653 54.0152H48.2577L47.4244 52.9168ZM46.288 52.6137V51.6668H47.0835C47.4623 51.6668 47.6895 51.8561 47.6895 52.1213C47.6895 52.4243 47.4244 52.6137 47.0456 52.6137H46.288ZM47.4244 52.9168C47.8411 52.8031 48.1441 52.5758 48.1441 52.1213C48.1441 51.9319 48.0683 51.7425 47.9168 51.591C47.6895 51.4016 47.4244 51.288 47.1214 51.288H45.8714V54.0152H46.288V52.9925H46.9698L47.7653 54.0152H48.2577L47.4244 52.9168ZM46.288 52.6137V51.6668H47.0835C47.4623 51.6668 47.6895 51.8561 47.6895 52.1213C47.6895 52.4243 47.4244 52.6137 47.0456 52.6137H46.288ZM47.4244 52.9168C47.8411 52.8031 48.1441 52.5758 48.1441 52.1213C48.1441 51.9319 48.0683 51.7425 47.9168 51.591C47.6895 51.4016 47.4244 51.288 47.1214 51.288H45.8714V54.0152H46.288V52.9925H46.9698L47.7653 54.0152H48.2577L47.4244 52.9168ZM46.288 52.6137V51.6668H47.0835C47.4623 51.6668 47.6895 51.8561 47.6895 52.1213C47.6895 52.4243 47.4244 52.6137 47.0456 52.6137H46.288ZM47.4244 52.9168C47.8411 52.8031 48.1441 52.5758 48.1441 52.1213C48.1441 51.9319 48.0683 51.7425 47.9168 51.591C47.6895 51.4016 47.4244 51.288 47.1214 51.288H45.8714V54.0152H46.288V52.9925H46.9698L47.7653 54.0152H48.2577L47.4244 52.9168ZM46.288 52.6137V51.6668H47.0835C47.4623 51.6668 47.6895 51.8561 47.6895 52.1213C47.6895 52.4243 47.4244 52.6137 47.0456 52.6137H46.288ZM47.4244 52.9168C47.8411 52.8031 48.1441 52.5758 48.1441 52.1213C48.1441 51.9319 48.0683 51.7425 47.9168 51.591C47.6895 51.4016 47.4244 51.288 47.1214 51.288H45.8714V54.0152H46.288V52.9925H46.9698L47.7653 54.0152H48.2577L47.4244 52.9168ZM46.288 52.6137V51.6668H47.0835C47.4623 51.6668 47.6895 51.8561 47.6895 52.1213C47.6895 52.4243 47.4244 52.6137 47.0456 52.6137H46.288ZM47.4244 52.9168C47.8411 52.8031 48.1441 52.5758 48.1441 52.1213C48.1441 51.9319 48.0683 51.7425 47.9168 51.591C47.6895 51.4016 47.4244 51.288 47.1214 51.288H45.8714V54.0152H46.288V52.9925H46.9698L47.7653 54.0152H48.2577L47.4244 52.9168ZM46.288 52.6137V51.6668H47.0835C47.4623 51.6668 47.6895 51.8561 47.6895 52.1213C47.6895 52.4243 47.4244 52.6137 47.0456 52.6137H46.288ZM47.4244 52.9168C47.8411 52.8031 48.1441 52.5758 48.1441 52.1213C48.1441 51.9319 48.0683 51.7425 47.9168 51.591C47.6895 51.4016 47.4244 51.288 47.1214 51.288H45.8714V54.0152H46.288V52.9925H46.9698L47.7653 54.0152H48.2577L47.4244 52.9168ZM46.288 52.6137V51.6668H47.0835C47.4623 51.6668 47.6895 51.8561 47.6895 52.1213C47.6895 52.4243 47.4244 52.6137 47.0456 52.6137H46.288ZM47.4244 52.9168C47.8411 52.8031 48.1441 52.5758 48.1441 52.1213C48.1441 51.9319 48.0683 51.7425 47.9168 51.591C47.6895 51.4016 47.4244 51.288 47.1214 51.288H45.8714V54.0152H46.288V52.9925H46.9698L47.7653 54.0152H48.2577L47.4244 52.9168ZM46.288 52.6137V51.6668H47.0835C47.4623 51.6668 47.6895 51.8561 47.6895 52.1213C47.6895 52.4243 47.4244 52.6137 47.0456 52.6137H46.288ZM47.4244 52.9168C47.8411 52.8031 48.1441 52.5758 48.1441 52.1213C48.1441 51.9319 48.0683 51.7425 47.9168 51.591C47.6895 51.4016 47.4244 51.288 47.1214 51.288H45.8714V54.0152H46.288V52.9925H46.9698L47.7653 54.0152H48.2577L47.4244 52.9168ZM46.288 52.6137V51.6668H47.0835C47.4623 51.6668 47.6895 51.8561 47.6895 52.1213C47.6895 52.4243 47.4244 52.6137 47.0456 52.6137H46.288ZM47.4244 52.9168C47.8411 52.8031 48.1441 52.5758 48.1441 52.1213C48.1441 51.9319 48.0683 51.7425 47.9168 51.591C47.6895 51.4016 47.4244 51.288 47.1214 51.288H45.8714V54.0152H46.288V52.9925H46.9698L47.7653 54.0152H48.2577L47.4244 52.9168ZM46.288 52.6137V51.6668H47.0835C47.4623 51.6668 47.6895 51.8561 47.6895 52.1213C47.6895 52.4243 47.4244 52.6137 47.0456 52.6137H46.288ZM47.4244 52.9168C47.8411 52.8031 48.1441 52.5758 48.1441 52.1213C48.1441 51.9319 48.0683 51.7425 47.9168 51.591C47.6895 51.4016 47.4244 51.288 47.1214 51.288H45.8714V54.0152H46.288V52.9925H46.9698L47.7653 54.0152H48.2577L47.4244 52.9168ZM46.288 52.6137V51.6668H47.0835C47.4623 51.6668 47.6895 51.8561 47.6895 52.1213C47.6895 52.4243 47.4244 52.6137 47.0456 52.6137H46.288ZM42.7653 51.8561C42.538 50.341 41.932 50.0001 40.7199 49.4698C41.629 48.9395 42.1971 48.144 42.1971 47.0455C42.1971 44.8865 40.4168 44.0152 38.485 44.0152H33.1062V55.5304H38.485C40.7577 55.4925 43.182 54.4698 42.7653 51.8561ZM35.5684 46.1743H38.3714C40.1138 46.1743 40.1896 48.6365 38.485 48.6365H35.5684V46.1743ZM38.6744 53.2955H35.5305V50.6819H38.6744C40.985 50.6819 40.8335 53.2955 38.6744 53.2955ZM32.0456 51.8561C31.8184 50.341 31.2123 50.0001 30.0002 49.4319C30.9093 48.9016 31.4775 48.1061 31.4775 47.0077C31.4775 44.8486 29.6972 43.9774 27.7653 43.9774H22.3487V55.4925H27.7275C30.0002 55.4925 32.4244 54.4698 32.0456 51.8561ZM24.8108 46.1743H27.6138C29.3563 46.1743 29.432 48.6365 27.7275 48.6365H24.8108V46.1743ZM27.9547 53.2955H24.8108V50.6819H27.9547C30.2275 50.6819 30.1138 53.2955 27.9547 53.2955ZM21.326 51.8561C21.0987 50.341 20.4926 50.0001 19.2805 49.4319C20.1896 48.9016 20.7578 48.1061 20.7578 47.0077C20.7578 44.8486 18.9775 43.9774 17.0457 43.9774H11.629V55.4925H17.0078C19.2805 55.4925 21.7048 54.4698 21.326 51.8561ZM14.0533 46.1743H16.8563C18.5987 46.1743 18.6745 48.6365 16.9699 48.6365H14.0533V46.1743ZM17.1972 53.2955H14.0533V50.6819H17.1972C19.5078 50.6819 19.3563 53.2955 17.1972 53.2955Z" fill="#055B76"/>
</svg>
